<svg width="197" height="52" viewBox="0 0 197 52" fill="none" xmlns="http://www.w3.org/2000/svg">
<rect x="0" y="13" width="156" height="26" fill="white"/>
<path d="M19.7,20.3V29H17v-8.7h-2.6V29h-2.7v-8.7H9.1v11.2h13.1V20.3H19.7z M31.8,31.5l-3-4l2.9-4h-2.8L26.5,27v-3.5
	h-2.4v8h2.4V28l2.6,3.5H31.8z M36,31.7c2.4,0,4.2-1.8,4.2-4.2c0-2.4-1.9-4.2-4.2-4.2c-2.4,0-4.2,1.8-4.2,4.2
	C31.8,29.9,33.7,31.7,36,31.7z M36,29.4c-1,0-1.8-0.8-1.8-1.9c0-1.1,0.8-1.9,1.8-1.9s1.8,0.8,1.8,1.9C37.9,28.6,37.1,29.4,36,29.4z
	 M48.4,23.5h-6.5V28c0,1-0.4,1.5-1.2,1.2v2.2c2.3,0.3,3.6-0.9,3.6-3.3v-2.4H46v5.7h2.4V23.5z M56,23.5v0.8c-0.5-0.6-1.3-1-2.4-1
	c-2.1,0-3.8,1.8-3.8,4.2c0,2.4,1.7,4.2,3.8,4.2c1.1,0,1.9-0.4,2.4-1v0.8h2.4v-8H56z M54.1,29.4c-1.1,0-1.9-0.8-1.9-2s0.8-2,1.9-2
	c1.1,0,1.9,0.8,1.9,2S55.2,29.4,54.1,29.4z M71.7,23.5h-7.5v8h2.4v-5.8h2.7v5.8h2.4V23.5z M80.4,23.5h-6.5V28c0,1-0.4,1.5-1.2,1.2
	v2.2c2.3,0.3,3.6-0.9,3.6-3.3v-2.4H78v5.7h2.4V23.5z M88,23.5v0.8c-0.5-0.6-1.3-1-2.4-1c-2.1,0-3.8,1.8-3.8,4.2
	c0,2.4,1.7,4.2,3.8,4.2c1.1,0,1.9-0.4,2.4-1v0.8h2.4v-8H88z M86.1,29.4c-1.1,0-1.9-0.8-1.9-2s0.8-2,1.9-2c1.1,0,1.9,0.8,1.9,2
	S87.2,29.4,86.1,29.4z M98.1,27.4c0.5-0.4,0.8-0.9,0.8-1.6c0-1.3-0.9-2.3-2.7-2.3h-4v8h4.3c1.8,0,2.7-1,2.7-2.3
	C99.2,28.4,98.8,27.8,98.1,27.4z M95.9,25.4c0.4,0,0.7,0.2,0.7,0.6c0,0.4-0.3,0.5-0.7,0.5h-1.5v-1.1H95.9z M96.1,29.5h-1.8v-1.2h1.8
	c0.4,0,0.7,0.2,0.7,0.6C96.8,29.3,96.5,29.5,96.1,29.5z M106.2,23.5v0.8c-0.5-0.6-1.3-1-2.4-1c-2.1,0-3.8,1.8-3.8,4.2
	c0,2.4,1.7,4.2,3.8,4.2c1.1,0,1.9-0.4,2.4-1v0.8h2.4v-8H106.2z M104.3,29.4c-1.1,0-1.9-0.8-1.9-2s0.8-2,1.9-2c1.1,0,1.9,0.8,1.9,2
	S105.4,29.4,104.3,29.4z M115.4,23.5v2.9h-2.7v-2.9h-2.4v8h2.4v-2.9h2.7v2.9h2.4v-8H115.4z M125.4,23.5l-3.4,4v-4h-2.3v8h1.8l3.4-4
	v4h2.3v-8H125.4z M135.5,23.5h-3.9c-1.9,0-3,1.4-3,2.8c0,1,0.6,2,1.6,2.5l-1.9,2.6h2.7l1.6-2.3h0.5v2.3h2.3V23.5z M131.8,25.6h1.4
	v1.6h-1.4c-0.5,0-0.8-0.3-0.8-0.8C131,25.9,131.3,25.6,131.8,25.6z" fill="#279BE7"/>
<g>
	<circle fill="#279BE7" cx="171" cy="26" r="26"/>
	<circle fill="#FFFFFF" cx="171" cy="26" r="12"/>
</g>
</svg>
