<?xml version="1.0" encoding="utf-8"?>
<!-- Generator: Adobe Illustrator 24.1.2, SVG Export Plug-In . SVG Version: 6.00 Build 0)  -->
<svg version="1.1" id="Слой_1" xmlns="http://www.w3.org/2000/svg" xmlns:xlink="http://www.w3.org/1999/xlink" x="0px" y="0px"
	 viewBox="0 0 150 150" style="enable-background:new 0 0 150 150;" xml:space="preserve">
<style type="text/css">
	.st0{fill:#007AFF;}
</style>
<g>
	<path class="st0" d="M75,23.5c5.2,0,10.3,1,15,3c4.6,2,8.7,4.7,12.3,8.3c3.6,3.6,6.4,7.7,8.3,12.3c2,4.8,3,9.8,3,15
		c0,10.4-1.7,15.1-4.7,19.7c-4.2,6.6-12.2,14.2-24.3,25.9c-3,2.9-6.2,6-9.7,9.4c-3.5-3.4-6.7-6.5-9.7-9.4
		C53.2,96.1,45.2,88.5,41,81.9c-3-4.6-4.7-9.3-4.7-19.7c0-5.2,1-10.3,3-15c2-4.6,4.7-8.7,8.3-12.3c3.6-3.6,7.7-6.4,12.3-8.3
		C64.7,24.6,69.8,23.5,75,23.5 M75,6.9c-30.6,0-55.4,24.8-55.4,55.4S32.1,97.7,75,140.5c42.9-42.9,55.4-47.7,55.4-78.3
		S105.6,6.9,75,6.9L75,6.9z"/>
</g>
</svg>
