<svg width="180" height="191" viewBox="0 0 180 191" fill="none" xmlns="http://www.w3.org/2000/svg">
<path d="M89.9873 143.361C88.4596 143.013 89.1448 138.293 87.8621 137.697C86.7354 137.168 87.1252 137.012 88.046 135.223C88.1704 134.969 88.3245 134.681 88.4638 134.356L92.0409 135.413C92.0409 135.413 91.9517 136.697 91.7697 138.234C91.4651 140.595 90.9118 143.572 89.9873 143.361Z" fill="#FFB27D"/>
<path d="M101.195 57.4394C101.195 57.4394 95.9065 56.8947 95.4538 53.2863C95.001 49.6779 99.0146 47.5996 98.5618 43.8836C98.1035 40.1805 99.4106 36.4498 103.513 34.4867C107.623 32.5421 114.317 34.6888 116.651 31.5059C118.979 28.336 126.651 27.5186 131.386 32.8707C136.121 38.2227 134.114 44.4832 129.863 45.9674C125.606 47.4647 122.322 49.8864 123.107 53.9756C123.898 58.0518 113.549 62.1356 108.372 59.0703C103.215 56.0291 101.195 57.4394 101.195 57.4394Z" fill="#0E2981"/>
<path d="M110.075 69.1976C111.642 72.3608 114.799 78.9896 115.545 82.5238C115.545 82.5238 123.933 93.133 124.484 93.8923C125.036 94.6515 122.879 96.0953 122.879 96.0953C122.879 96.0953 112.857 88.7229 110.538 85.2682C108.233 81.8191 100.509 71.6332 102.113 67.5685C102.995 65.332 105.052 65.5217 106.715 66.127C108.199 66.686 109.385 67.7943 110.075 69.1976Z" fill="#FFB27D"/>
<path d="M122.891 96.1006C122.891 96.1006 125.386 100.185 126.962 99.3068C128.538 98.4291 126.016 95.3791 126.229 95.2399C126.443 95.1007 127.569 95.7375 127.319 94.9227C127.115 94.2507 124.319 93.6674 124.319 93.6674L122.891 96.1006Z" fill="#FFB27D"/>
<path d="M93.5354 98.2345C93.5354 98.2345 87.8158 102.427 82.8499 106.727C80.7466 108.547 76.8406 113.101 75.7528 112.589C75.7528 112.589 71.1789 110.843 72.9687 106.597C74.764 102.337 80.2222 91.5428 83.7604 91.5063C87.2855 91.4641 93.5354 98.2345 93.5354 98.2345Z" fill="#FFB27D"/>
<path d="M101.267 95.3051C101.267 95.3051 100.154 118.175 94.9784 119.232C94.9784 119.232 92.4222 120.566 91.7672 115.994C91.1122 111.422 88.8872 97.2725 91.9002 95.4113C94.9131 93.55 101.267 95.3051 101.267 95.3051Z" fill="#FFB27D"/>
<path d="M91.9849 135.543L98.7302 113.243C97.6592 111.722 93.501 111.877 91.4606 116.709C90.1536 119.793 88.4078 134.486 88.4078 134.486L91.9849 135.543Z" fill="#FFB27D"/>
<path d="M56.9273 117.176C56.9273 117.176 75.0045 113.222 76.1591 112.609C78.3274 111.462 76.4139 104.659 73.2803 105.869C68.7285 107.624 56.274 113.497 56.274 113.497L56.9273 117.176Z" fill="#FFB27D"/>
<path d="M56.9275 117.176C56.9275 117.176 55.9324 117.595 54.6367 118.07C52.3422 118.901 49.1382 119.881 48.8969 118.901C48.535 117.377 53.0515 115.883 53.0126 114.467C52.9737 113.051 53.3988 113.602 56.2687 113.51L56.9275 117.176Z" fill="#FFB27D"/>
<path d="M106.476 67.4395L96.7467 68.0672L97.5342 61.853C97.5342 61.853 99.6133 61.3447 101.195 57.4396C101.743 56.0903 102.719 54.7095 103.332 52.9574L108.398 59.0816C108.398 59.0816 107.985 59.6124 107.503 60.4513C106.974 61.3626 106.37 62.6265 106.114 63.9777C105.873 65.1508 105.912 66.3517 106.476 67.4395Z" fill="#FFB27D"/>
<path d="M106.095 63.985C102.449 62.299 101.195 57.4395 101.195 57.4395L107.484 60.4586C106.968 61.3754 106.346 62.6468 106.095 63.985Z" fill="#EA9C68"/>
<path d="M106.918 62.4614C106.918 62.4614 99.3776 60.0286 100.436 53.4692C101.578 46.3919 106.798 44.0465 109.171 45.1866C113.895 47.4425 115.361 50.7319 114.993 52.9889C114.639 55.2515 111.065 63.8393 106.918 62.4614Z" fill="#FFB27D"/>
<path d="M105.919 57.6502C105.919 57.6502 105.756 58.5337 107.789 59.282C107.789 59.282 109.491 59.9041 109.825 59.0169C109.831 59.0039 108.492 57.6765 105.919 57.6502Z" fill="white"/>
<path d="M112.584 47.342C112.584 47.342 109.018 49.9196 106.551 48.8928C104.084 47.8659 103.557 49.347 102.201 49.7812C95.1027 52.0594 98.7435 42.6697 105.072 39.3538C111.4 36.0379 111.816 41.4913 112.753 43.5388C113.683 45.5677 112.584 47.342 112.584 47.342Z" fill="#0E2981"/>
<path d="M112.371 47.4812C112.371 47.4812 114.062 48.7752 113.96 50.9154C113.88 52.6805 114.325 54.1173 115.326 53.9003C116.313 53.6777 120.459 44.1508 112.956 39.2271L112.371 47.4812Z" fill="#0E2981"/>
<path d="M102.842 50.44L101.466 49.9888L100.908 51.4717C100.908 51.4717 101.826 52.773 101.912 52.7174C101.984 52.6561 102.842 50.44 102.842 50.44Z" fill="#2C3A64"/>
<path d="M105.09 49.6815L114.455 52.7735C115.184 53.0093 115.572 53.7908 115.336 54.5202L114.644 56.638C114.343 57.5549 113.365 58.0429 112.448 57.7421L110.788 57.1998C109.981 56.9305 109.442 56.1769 109.468 55.3267C109.474 54.9908 109.066 54.8311 108.847 55.0909L108.776 55.1837C108.238 55.8296 107.365 56.0707 106.571 55.807L103.213 54.7058C102.296 54.4049 101.781 53.4155 102.056 52.4875L102.48 51.0695C102.786 49.9243 103.972 49.3101 105.09 49.6815Z" fill="#2C3A64"/>
<path d="M106.881 55.0478L103.607 53.967C103.038 53.785 102.723 53.1576 102.905 52.5896L103.382 51.1178C103.564 50.5498 104.191 50.2344 104.759 50.4164L108.034 51.4972C108.602 51.6792 108.918 52.3066 108.736 52.8745L108.258 54.3464C108.071 54.9273 107.443 55.2428 106.881 55.0478Z" fill="#C7DEFF"/>
<path d="M112.92 57.0365L110.815 56.3494C110.33 56.1878 110.065 55.6588 110.226 55.1744L110.811 53.3796C110.973 52.8951 111.502 52.6298 111.986 52.7913L114.091 53.4784C114.576 53.64 114.841 54.1691 114.679 54.6535L114.095 56.4483C113.933 56.9327 113.404 57.1981 112.92 57.0365Z" fill="#C7DEFF"/>
<path d="M101.425 62.9674C101.425 62.9674 107.228 64.9321 109.579 68.4165C111.827 71.7486 107.583 77.2347 103.907 84.8406C100.71 91.4368 101.404 98.7168 101.404 98.7168L81.7553 92.4157C81.7553 92.4157 83.1106 89.7208 87.4492 83.6909C89.9907 80.1665 89.592 72.4133 91.0643 69.3379C92.3341 66.6986 90.3945 63.6524 91.6123 62.4981C94.15 60.0947 101.425 62.9674 101.425 62.9674Z" fill="#FFB27D"/>
<path d="M94.4073 69.8634C91.3145 71.552 84.8079 74.9607 81.2938 75.8381C81.2938 75.8381 71.0056 84.6235 70.2667 85.1988C69.5279 85.7741 68.0058 83.6912 68.0058 83.6912C68.0058 83.6912 74.988 73.3963 78.3463 70.9449C81.6989 68.5064 91.278 60.263 95.4101 61.7114C97.6804 62.5155 97.8789 64.7076 97.3256 66.3929C96.8373 67.8907 95.7884 69.1175 94.4073 69.8634Z" fill="#FFB27D"/>
<path d="M68.0188 83.697C68.0188 83.697 64.0387 86.3433 64.9649 87.8784C65.8911 89.4136 68.8521 86.7765 69.0043 86.9955C69.1621 87.2016 68.5513 88.3393 69.3588 88.0703C70.0234 87.8477 70.4969 85.0208 70.4969 85.0208L68.0188 83.697Z" fill="#FFB27D"/>
<path d="M96.862 61.7338C96.862 61.7338 96.2454 67.6214 90.3104 72.0288C90.3104 72.0288 88.6893 81.3 88.3421 82.074C87.995 82.848 81.6068 92.1518 80.1848 94.0337C80.1848 94.0337 85.2878 95.1909 89.117 101.616C89.3973 102.074 90.0897 102.11 90.3533 101.853C90.3533 101.853 97.2052 99.577 101.215 100.235C101.215 100.235 102.041 91.1305 102.569 89.8647C103.096 88.5988 109.156 75.9706 108.491 72.6405C107.845 69.3031 106.698 65.6277 106.698 65.6277L105.969 65.1766C105.969 65.1766 106.31 70.4444 105.493 71.5245C104.677 72.6047 98.018 71.0574 97.7897 69.3293C97.5615 67.6012 97.8328 61.7655 97.8328 61.7655L96.862 61.7338Z" fill="white"/>
<path d="M54.6365 118.071C52.342 118.902 49.1379 119.881 48.8966 118.901C48.5347 117.377 52.4591 116.153 52.6931 114.746C53.0292 112.706 53.9573 112.981 56.274 113.497C56.274 113.497 54.3935 114.152 53.9164 115.516C53.4318 116.862 54.6365 118.071 54.6365 118.071Z" fill="#2C3A64"/>
<path d="M51.8021 115.963C51.8615 115.681 44.8053 121.054 35.5533 122.147C35.5533 122.147 36.8081 123.239 37.0883 125.635C37.3684 128.031 41.0995 130.308 42.5215 130.794C42.5215 130.794 51.4321 125.186 54.6365 118.07C54.6365 118.07 51.3509 118.092 51.8021 115.963Z" fill="#2C3A64"/>
<path d="M89.9873 143.361C88.4595 143.013 88.3132 138.367 87.4649 137.727C86.4699 136.962 86.8523 136.572 88.033 135.217C88.033 135.217 88.8385 138.254 91.7567 138.229C91.4651 140.595 90.9117 143.572 89.9873 143.361Z" fill="#2C3A64"/>
<path d="M88.1441 139.371C88.1441 139.371 86.9021 141.946 83.2598 144.952C79.9071 147.713 74.3882 149.285 74.3882 149.285C74.3882 149.285 74.8057 153.047 77.7442 153.907C81.5013 155.01 81.5495 156.907 83.3278 157.962C83.3278 157.962 91.2456 147.853 91.4521 140.267L88.1441 139.371Z" fill="#2C3A64"/>
</svg>
