<svg width="145" height="122" viewBox="0 0 145 122" fill="none" xmlns="http://www.w3.org/2000/svg">
<path d="M34.3604 37.8192L31.0765 38.1824C27.6522 38.561 24.5513 36.078 24.1727 32.6542L21.9204 12.2866L23.5009 12.1119L25.7531 32.4794C26.0366 35.0429 28.3379 36.8856 30.9018 36.6021L34.1856 36.239L34.3604 37.8192Z" fill="#0E2981"/>
<path d="M23.6792 14.367L22.1514 14.5359C21.9231 14.5612 21.7281 14.405 21.7028 14.1768L21.5339 12.6492C21.5087 12.4209 21.6649 12.2259 21.8932 12.2007L23.421 12.0318C23.6493 12.0065 23.8443 12.1627 23.8695 12.3909L24.0384 13.9185C24.0637 14.1467 23.8899 14.3437 23.6792 14.367Z" fill="#0E2981"/>
<path d="M56.7289 38.6869C56.7289 38.6869 59.8066 36.9425 66.2152 38.3133C72.6043 39.6684 83.8556 40.6281 87.1459 42.8947C90.4342 45.1437 96.4281 51.9277 96.4281 51.9277L93.5923 53.6098C93.5923 53.6098 82.8134 48.4035 81.5492 48.2234C80.285 48.0432 65.4914 49.1282 65.4914 49.1282L56.7289 38.6869Z" fill="#FFB27D"/>
<path d="M43.6074 54.0897C43.6074 54.0897 25.4935 57.7812 23.5935 57.1559C21.6935 56.5307 7.42974 48.2618 7.42974 48.2618L5.29963 51.0211C5.29963 51.0211 19.3892 63.9836 23.0661 65.5676C26.743 67.1515 50.0863 66.0632 50.0863 66.0632L43.6074 54.0897Z" fill="#FFB27D"/>
<path d="M41.3 53.1541C41.3 53.1541 42.7559 48.9587 57.0879 42.7351L50.7451 53.2116L46.0091 54.7484L43.6491 53.1787L41.3 53.1541Z" fill="#A05F32"/>
<path d="M43.7373 52.2091L55.9905 51.2985L53.9207 43.6717C53.9207 43.6717 51.3714 42.1585 48.5832 38.8056C47.4153 37.4063 46.2105 35.6734 45.1443 33.5874L39.903 42.1293C39.903 42.1293 40.5193 42.7187 41.266 43.6848C42.0751 44.7328 43.0557 46.2061 43.609 47.8334C44.1018 49.2363 44.2532 50.7658 43.7373 52.2091Z" fill="#FFB27D"/>
<path d="M37.4793 42.5574C37.4793 42.5574 48.9088 46.0922 53.2782 37.0603C57.9953 27.3145 53.5665 19.8953 49.6725 19.2417C41.8865 17.9522 37.218 20.7433 35.712 23.8424C34.1885 26.9434 31.155 40.6619 37.4793 42.5574Z" fill="#FFB27D"/>
<path d="M9.31371 50.0262C9.31371 50.0262 9.02575 48.5473 9.30547 47.219C9.60276 45.8887 8.82211 42.687 8.23078 42.9657C7.63945 43.2443 8.10125 44.3663 7.38717 44.3386C6.67309 44.3109 5.01077 40.6913 4.17545 41.1747C3.34012 41.6581 2.86917 43.0254 3.5584 45.7217C4.24763 48.4181 5.93393 50.9686 5.93393 50.9686L9.31371 50.0262Z" fill="#FFB27D"/>
<path d="M50.3186 19.2947C50.3186 19.2947 53.1285 11.2705 60.0279 14.1866C66.9098 17.1046 63.6549 25.2846 61.28 25.9915C61.28 25.9915 62.8416 24.6814 62.2653 22.3636C62.2653 22.3636 59.916 29.8925 53.4583 25.6657C47.0162 21.4194 50.3186 19.2947 50.3186 19.2947Z" fill="#0E2981"/>
<path d="M56.7292 38.6869C56.7292 38.6869 39.5877 51.8149 39.478 56.2881C39.3682 60.7612 54.545 72.7859 57.7524 76.7145C60.9598 80.6431 70.8088 91.5863 72.6586 91.2751C74.4908 90.9659 93.6031 73.7987 93.7441 72.8234C94.5467 67.8649 78.9239 61.6124 74.2563 55.5703C67.8028 47.202 61.0405 36.0418 56.7292 38.6869Z" fill="#FFB27D"/>
<path d="M42.7563 51.0559C42.7563 51.0559 48.593 52.721 52.6536 48.4508C56.7141 44.1806 54.082 40.7926 54.082 40.7926L56.7464 38.6852L68.2062 47.3175L73.5467 53.8183C73.5467 53.8183 69.1888 66.8124 52.7795 71.7727L46.8649 66.1884C46.8649 66.1884 50.1506 62.466 43.6425 57.4628C43.6425 57.4628 39.966 55.079 38.3505 55.0977C38.3525 55.1152 40.9998 52.0499 42.7563 51.0559Z" fill="white"/>
<path d="M69.9921 89.6682C69.9921 89.6682 84.3403 111.24 91.065 112.576C97.7896 113.911 116.425 105.612 116.425 105.612L114.844 100.153C114.844 100.153 95.1184 99.8818 94.2175 98.9684C93.3166 98.0549 91.328 80.7151 88.7423 78.0685C87.5821 76.8994 71.3924 83.5239 69.9921 89.6682Z" fill="#FFB27D"/>
<path d="M91.8518 83.039C91.8518 83.039 107.456 87.9961 112.454 85.1329C117.45 82.2522 124.013 72.64 126.934 68.1936L122.601 64.3717C122.601 64.3717 111.009 72.8694 110.018 72.268C109.029 71.6843 90.2235 67.0279 90.2235 67.0279C90.2235 67.0279 89.9264 78.8086 91.8518 83.039Z" fill="#FFB27D"/>
<path d="M64.5946 84.4178C64.2147 83.3935 72.3299 71.2636 85.5564 63.7226L90.2236 67.0277C90.2236 67.0277 93.3926 80.5757 91.8519 83.0388C90.2936 85.5038 80.0708 80.3427 69.9748 89.6702C69.9923 89.6682 65.4849 86.8431 64.5946 84.4178Z" fill="white"/>
<path d="M116.425 105.613C116.425 105.613 118.888 105.376 121.141 105.82C123.394 106.264 127.541 107.6 128.742 106.081C129.96 104.56 124.849 103.348 123.801 101.26C122.752 99.1723 122.754 95.813 114.844 100.153L116.425 105.613Z" fill="#FFB27D"/>
<path d="M126.934 68.1934C126.934 68.1934 131.646 65.4686 134.352 64.5472C137.059 63.6259 139.948 60.1783 138.443 59.2607C136.937 58.343 131.765 60.7633 129.522 60.2471C127.278 59.731 123.676 60.2715 122.619 64.3696C121.541 68.4521 126.934 68.1934 126.934 68.1934Z" fill="#FFB27D"/>
<path d="M93.5927 53.6099C93.5927 53.6099 93.6371 54.4936 93.8417 55.0575C94.165 56.0526 94.746 56.9659 95.0036 56.8841C95.3997 56.7692 95.0786 55.1518 95.0786 55.1518C95.0786 55.1518 96.3431 58.3888 97.6115 57.9642C98.7258 57.5922 98.5442 54.1821 96.4598 51.8888L94.1587 53.263L93.5927 53.6099Z" fill="#FFB27D"/>
<path d="M33.7428 32.2357C33.7428 32.2357 31.1768 36.5184 34.5952 39.9438L33.7428 32.2357Z" fill="#FFB27D"/>
<path d="M36.5394 34.5391C35.509 35.0263 33.9991 34.5534 32.7606 33.8018C32.5695 33.6807 32.4369 33.4465 32.3825 33.1149C32.1139 31.8116 32.7104 29.1686 33.0194 27.9436C33.1171 27.5418 33.1973 27.3019 33.1973 27.3019C33.1973 27.3019 37.5514 28.5799 37.7696 29.1068C37.9703 29.6355 37.5699 34.052 36.5394 34.5391Z" fill="#AFCDFB"/>
<path d="M35.5389 33.69C34.6491 34.0017 33.422 33.6753 32.3843 33.1324C32.1158 31.8291 32.7123 29.1861 33.0212 27.9611C33.665 28.1566 36.8857 29.1511 37.0338 29.5258C37.2033 29.9336 36.5322 33.3491 35.5389 33.69Z" fill="#C7DEFF"/>
<path d="M40.83 16.1138C40.83 16.1138 35.4103 15.4868 32.3763 19.2347C29.3403 22.965 35.2602 29.5618 36.6759 31.1115C38.0915 32.6611 40.3326 30.2628 41.2606 31.582C42.1886 32.9012 39.5638 34.0801 39.5242 35.1686C39.4846 36.2572 41.2311 42.8888 45.66 42.9145C50.089 42.9402 56.3223 36.4569 57.0717 28.7672C57.8582 21.0912 55.9226 10.4993 40.83 16.1138Z" fill="#0E2981"/>
<path d="M37.1956 33.56C37.1956 33.56 41.027 38.1483 55.8381 33.6846C55.8381 33.6846 56.5428 32.8246 56.6491 31.2133C56.6491 31.2133 44.5032 35.6667 37.5595 31.7069L37.1956 33.56Z" fill="#F77D48"/>
</svg>
