<svg width="179" height="193" viewBox="0 0 179 193" fill="none" xmlns="http://www.w3.org/2000/svg">
<rect x="59.0898" y="16.8882" width="131" height="131" rx="20" transform="rotate(26.8122 59.0898 16.8882)" fill="#EDF9FF"/>
<path d="M93.3716 55.9158L88.1104 76.9133L82.9906 81.5125C97.2589 91.8779 96.1285 100.949 101.479 100.08C101.479 100.08 104.281 95.2075 105.174 93.2034C106.067 91.1992 107.936 88.4504 108.993 85.4509L115.957 66.971C115.957 66.971 121.723 56.3505 117.758 53.847C116.319 52.9403 114.808 50.2803 115.397 48.6812C115.486 48.4266 116.714 44.4558 117.888 41.8553L108.684 41.7752C108.684 41.7752 106.848 46.3171 106.239 47.2467C106.183 47.3182 106.15 47.3818 106.094 47.4533C105.413 48.4862 103.914 48.6071 102.695 48.4105C95.2019 47.1586 93.3716 55.9158 93.3716 55.9158Z" fill="#FFB27D"/>
<path d="M96.6634 57.6592C96.5586 57.9456 96.7087 58.2411 96.9952 58.3459C97.2816 58.4507 97.5771 58.3006 97.6819 58.0142C97.7867 57.7278 97.6366 57.4323 97.3501 57.3275C97.0796 57.2307 96.7602 57.3887 96.6634 57.6592Z" fill="#ED975D"/>
<path d="M109.124 62.0803C109.02 62.3667 109.17 62.6622 109.456 62.767C109.743 62.8719 110.038 62.7218 110.143 62.4354C110.248 62.1489 110.098 61.8535 109.811 61.7486C109.541 61.6518 109.229 61.7939 109.124 62.0803Z" fill="#ED975D"/>
<path d="M82.9905 81.5124C82.9905 81.5124 67.599 101.023 66.84 110.861C66.0809 120.698 70.0875 134.222 70.0875 134.222L75.1143 132.73C75.1143 132.73 75.2959 114.396 78.0151 110.24C80.7263 106.101 95.2652 90.2913 95.2652 90.2913L82.9905 81.5124Z" fill="#FFB27D"/>
<path d="M70.0795 134.238C70.0795 134.238 69.5832 138.499 67.4259 141.701C65.2845 144.91 64.184 146.969 65.8475 147.431C67.5111 147.892 71.5108 144.324 73.5493 142.819C75.5878 141.314 80.1683 139.836 75.1142 132.77L70.0795 134.238Z" fill="#FFB27D"/>
<path d="M91.1412 87.6277C91.1412 87.6277 80.9162 110.269 82.5483 119.997C84.1962 129.734 91.3484 141.893 91.3484 141.893L95.8622 139.243C95.8622 139.243 91.603 121.399 93.2486 116.721C94.8942 112.043 105.175 93.2031 105.175 93.2031L91.1412 87.6277Z" fill="#FFB27D"/>
<path d="M91.3399 141.909C91.3399 141.909 91.8877 146.158 90.5733 149.786C89.2589 153.414 88.7073 155.691 90.4285 155.722C92.1497 155.753 95.1727 151.352 96.7828 149.391C98.3929 147.43 102.484 144.906 95.8776 139.251L91.3399 141.909Z" fill="#FFB27D"/>
<path d="M102.711 48.4183C102.711 48.4183 99.0666 47.255 94.4417 40.4458C90.7038 34.9233 90.3748 16.7302 90.3748 16.7302L87.2832 16.645C87.2832 16.645 83.7499 36.0802 85.3539 41.163C86.958 46.2459 93.3478 55.9234 93.3478 55.9234L102.711 48.4183Z" fill="#FFB27D"/>
<path d="M90.3986 16.7225C90.3986 16.7225 91.7474 14.3698 91.6378 13.9151C91.5282 13.4604 90.2397 14.7457 90.2568 14.4748C90.2579 14.1959 90.5032 10.8662 89.4363 10.6464C87.9395 10.3291 87.5979 11.9532 87.194 13.2263C86.7901 14.4995 87.3229 16.6453 87.3229 16.6453L90.3986 16.7225Z" fill="#FFB27D"/>
<path d="M116.279 45.5535C116.279 45.5535 114.246 47.6403 107.251 45.1634L107.823 43.8352L116.279 45.5535Z" fill="#ED975D"/>
<path d="M105.383 42.3423C105.383 42.3423 114.823 50.4475 119.939 43.0115C125.055 35.5755 123.932 27.8413 121.048 26.0039C115.27 22.3451 112.768 24.135 110.48 26.2128C108.2 28.2746 100.991 38.6656 105.383 42.3423Z" fill="#FFB27D"/>
<path d="M110.998 39.4108C110.998 39.4108 109.425 40.1928 107.629 38.8064C107.629 38.8064 105.651 37.3475 106.813 35.8386C106.813 35.8386 109.549 37.1016 110.998 39.4108Z" fill="white"/>
<path d="M116.286 45.8563C116.286 45.8563 118.925 45.3738 120.097 41.5939C120.097 41.5939 122.157 40.6786 121.638 39.0588C121.135 37.4868 118.84 39.3015 118.77 38.8072C118.7 38.3128 121.753 32.6288 120.194 31.8411C118.636 31.0534 110.178 27.9168 109.206 24.2312C108.217 20.5375 121.252 17.3434 128.885 26.9706C136.511 36.5739 128.907 46.1664 116.286 45.8563Z" fill="#2C3A64"/>
<path d="M130.814 34.5329C130.814 34.5329 132.141 33.4471 132.29 32.1648C132.29 32.1648 131.4 33.4916 130.506 33.7587C129.613 34.0257 130.814 34.5329 130.814 34.5329Z" fill="#2C3A64"/>
<path d="M131.225 33.4431C131.225 33.4431 132.513 34.0941 132.459 35.4246C132.459 35.4246 132.002 34.2752 130.735 34.3334L131.225 33.4431Z" fill="#2C3A64"/>
<path d="M151.292 102.377C149.852 107.439 146.488 111.448 142.206 113.836C137.925 116.224 132.741 116.998 127.695 115.565L56.3549 95.3806C46.2385 92.5236 40.307 81.8998 43.1631 71.7846C44.2957 67.8053 46.6209 64.4688 49.6594 62.0518C50.3631 61.4891 51.1223 60.9744 51.9132 60.5157C56.0275 58.1034 61.0278 57.2168 65.9636 58.3938C66.4253 58.5074 66.8869 58.6608 67.3404 58.8301C71.135 60.3687 93.0839 69.2058 101.211 71.4964C109.194 73.7544 132.462 77.8084 137.24 78.6261C137.957 78.7487 138.649 78.9191 139.341 79.1691C144.569 81.0327 148.537 85.0342 150.556 89.8877C152.149 93.7275 152.497 98.0956 151.292 102.377Z" fill="#F77D48"/>
<path d="M150.548 89.9037C149.675 90.9995 149.031 92.4709 147.687 93.7877C145.254 96.1915 137.259 89.2161 133.815 85.6791C130.372 82.1421 130.753 89.8013 120.487 90.4018C110.204 90.9944 107.231 80.0488 105.617 79.1334C103.979 78.2258 98.2624 88.2728 93.013 85.8992C87.7557 83.5017 91.6375 73.9248 89.3352 71.8828C87.0328 69.8408 81.8871 78.6791 78.3159 77.0539C74.7289 75.4206 77.0952 69.9089 73.0671 68.9112C69.0391 67.9135 64.1449 73.8046 60.9806 72.0856C57.8241 70.3905 60.2024 65.8031 57.7578 63.4896C55.3132 61.1761 49.6754 62.0598 49.6754 62.0598C50.3791 61.4972 51.1383 60.9825 51.9292 60.5238C56.0435 58.1115 61.0438 57.2249 65.9796 58.4019C66.4413 58.5155 66.9029 58.6689 67.3564 58.8382C71.1511 60.3767 93.0999 69.2139 101.227 71.5045C109.21 73.7625 132.478 77.8165 137.256 78.6342C137.973 78.7568 138.665 78.9272 139.357 79.1772C144.561 81.0486 148.537 85.0343 150.548 89.9037Z" fill="white"/>
<path d="M117.98 53.9995C117.98 53.9995 121.514 56.9234 123.021 60.5397C124.544 64.1639 128.19 78.0846 126.508 81.8861C124.827 85.6876 118.939 92.7139 118.939 92.7139L116.677 90.6721C116.677 90.6721 121.494 80.4299 120.396 78.2577C119.297 76.0855 113.449 66.3625 113.449 66.3625L117.98 53.9995Z" fill="#FFB27D"/>
<path d="M116.684 90.6558C116.684 90.6558 113.677 91.4713 113.152 93.0229C112.934 93.6514 115.137 92.8084 114.953 93.0945C114.784 93.3886 112.992 95.1179 113.243 95.9238C113.495 96.7297 116.535 95.8505 117.143 95.3591C117.734 94.8597 118.955 92.6817 118.955 92.6817L116.684 90.6558Z" fill="#FFB27D"/>
</svg>
