<svg width="170" height="179" viewBox="0 0 170 179" fill="none" xmlns="http://www.w3.org/2000/svg">
<rect y="57.0479" width="131" height="131" rx="20" transform="rotate(-21.4951 0 57.0479)" fill="#EDF9FF"/>
<path d="M41.3604 37.8192L38.0765 38.1824C34.6522 38.561 31.5513 36.078 31.1727 32.6542L28.9204 12.2866L30.5009 12.1119L32.7531 32.4794C33.0366 35.0429 35.3379 36.8856 37.9018 36.6021L41.1856 36.239L41.3604 37.8192Z" fill="#0E2981"/>
<path d="M30.6792 14.367L29.1514 14.5359C28.9231 14.5612 28.7281 14.405 28.7028 14.1768L28.5339 12.6492C28.5087 12.4209 28.6649 12.2259 28.8932 12.2007L30.421 12.0318C30.6493 12.0065 30.8443 12.1627 30.8695 12.3909L31.0384 13.9185C31.0637 14.1467 30.8899 14.3437 30.6792 14.367Z" fill="#0E2981"/>
<path d="M63.7289 38.6869C63.7289 38.6869 66.8066 36.9425 73.2152 38.3133C79.6043 39.6684 90.8556 40.6281 94.1459 42.8947C97.4342 45.1437 103.428 51.9277 103.428 51.9277L100.592 53.6098C100.592 53.6098 89.8134 48.4035 88.5492 48.2234C87.285 48.0432 72.4914 49.1282 72.4914 49.1282L63.7289 38.6869Z" fill="#FFB27D"/>
<path d="M50.6074 54.0897C50.6074 54.0897 32.4935 57.7812 30.5935 57.1559C28.6935 56.5307 14.4297 48.2618 14.4297 48.2618L12.2996 51.0211C12.2996 51.0211 26.3892 63.9836 30.0661 65.5676C33.743 67.1515 57.0863 66.0632 57.0863 66.0632L50.6074 54.0897Z" fill="#FFB27D"/>
<path d="M48.3 53.1541C48.3 53.1541 49.7559 48.9587 64.0879 42.7351L57.7451 53.2116L53.0091 54.7484L50.6491 53.1787L48.3 53.1541Z" fill="#A05F32"/>
<path d="M50.7373 52.2091L62.9905 51.2985L60.9207 43.6717C60.9207 43.6717 58.3714 42.1585 55.5832 38.8056C54.4153 37.4063 53.2105 35.6734 52.1443 33.5874L46.903 42.1293C46.903 42.1293 47.5193 42.7187 48.266 43.6848C49.0751 44.7328 50.0557 46.2061 50.609 47.8334C51.1018 49.2363 51.2532 50.7658 50.7373 52.2091Z" fill="#FFB27D"/>
<path d="M44.4793 42.5574C44.4793 42.5574 55.9088 46.0922 60.2782 37.0603C64.9953 27.3145 60.5665 19.8953 56.6725 19.2417C48.8865 17.9522 44.218 20.7433 42.712 23.8424C41.1885 26.9434 38.155 40.6619 44.4793 42.5574Z" fill="#FFB27D"/>
<path d="M16.3137 50.0262C16.3137 50.0262 16.0258 48.5473 16.3055 47.219C16.6028 45.8887 15.8221 42.687 15.2308 42.9657C14.6395 43.2443 15.1012 44.3663 14.3872 44.3386C13.6731 44.3109 12.0108 40.6913 11.1754 41.1747C10.3401 41.6581 9.86917 43.0254 10.5584 45.7217C11.2476 48.4181 12.9339 50.9686 12.9339 50.9686L16.3137 50.0262Z" fill="#FFB27D"/>
<path d="M57.3186 19.2947C57.3186 19.2947 60.1285 11.2705 67.0279 14.1866C73.9098 17.1046 70.6549 25.2846 68.28 25.9915C68.28 25.9915 69.8416 24.6814 69.2653 22.3636C69.2653 22.3636 66.916 29.8925 60.4583 25.6657C54.0162 21.4194 57.3186 19.2947 57.3186 19.2947Z" fill="#0E2981"/>
<path d="M63.7292 38.6869C63.7292 38.6869 46.5877 51.8149 46.478 56.2881C46.3682 60.7612 61.545 72.7859 64.7524 76.7145C67.9598 80.6431 77.8088 91.5863 79.6586 91.2751C81.4908 90.9659 100.603 73.7987 100.744 72.8234C101.547 67.8649 85.9239 61.6124 81.2563 55.5703C74.8028 47.202 68.0405 36.0418 63.7292 38.6869Z" fill="#FFB27D"/>
<path d="M49.7563 51.0559C49.7563 51.0559 55.593 52.721 59.6536 48.4508C63.7141 44.1806 61.082 40.7926 61.082 40.7926L63.7464 38.6852L75.2062 47.3175L80.5467 53.8183C80.5467 53.8183 76.1888 66.8124 59.7795 71.7727L53.8649 66.1884C53.8649 66.1884 57.1506 62.466 50.6425 57.4628C50.6425 57.4628 46.966 55.079 45.3505 55.0977C45.3525 55.1152 47.9998 52.0499 49.7563 51.0559Z" fill="white"/>
<path d="M76.9921 89.6682C76.9921 89.6682 91.3403 111.24 98.065 112.576C104.79 113.911 123.425 105.612 123.425 105.612L121.844 100.153C121.844 100.153 102.118 99.8818 101.217 98.9684C100.317 98.0549 98.328 80.7151 95.7423 78.0685C94.5821 76.8994 78.3924 83.5239 76.9921 89.6682Z" fill="#FFB27D"/>
<path d="M98.8518 83.039C98.8518 83.039 114.456 87.9961 119.454 85.1329C124.45 82.2522 131.013 72.64 133.934 68.1936L129.601 64.3717C129.601 64.3717 118.009 72.8694 117.018 72.268C116.029 71.6843 97.2235 67.0279 97.2235 67.0279C97.2235 67.0279 96.9264 78.8086 98.8518 83.039Z" fill="#FFB27D"/>
<path d="M71.5946 84.4178C71.2147 83.3935 79.3299 71.2636 92.5564 63.7226L97.2236 67.0277C97.2236 67.0277 100.393 80.5757 98.8519 83.0388C97.2936 85.5038 87.0708 80.3427 76.9748 89.6702C76.9923 89.6682 72.4849 86.8431 71.5946 84.4178Z" fill="white"/>
<path d="M123.425 105.613C123.425 105.613 125.888 105.376 128.141 105.82C130.394 106.264 134.541 107.6 135.742 106.081C136.96 104.56 131.849 103.348 130.801 101.26C129.752 99.1723 129.754 95.813 121.844 100.153L123.425 105.613Z" fill="#FFB27D"/>
<path d="M133.934 68.1934C133.934 68.1934 138.646 65.4686 141.352 64.5472C144.059 63.6259 146.948 60.1783 145.443 59.2607C143.937 58.343 138.765 60.7633 136.522 60.2471C134.278 59.731 130.676 60.2715 129.619 64.3696C128.541 68.4521 133.934 68.1934 133.934 68.1934Z" fill="#FFB27D"/>
<path d="M100.593 53.6099C100.593 53.6099 100.637 54.4936 100.842 55.0575C101.165 56.0526 101.746 56.9659 102.004 56.8841C102.4 56.7692 102.079 55.1518 102.079 55.1518C102.079 55.1518 103.343 58.3888 104.612 57.9642C105.726 57.5922 105.544 54.1821 103.46 51.8888L101.159 53.263L100.593 53.6099Z" fill="#FFB27D"/>
<path d="M40.7428 32.2357C40.7428 32.2357 38.1768 36.5184 41.5952 39.9438L40.7428 32.2357Z" fill="#FFB27D"/>
<path d="M43.5394 34.5391C42.509 35.0263 40.9991 34.5534 39.7606 33.8018C39.5695 33.6807 39.4369 33.4465 39.3825 33.1149C39.1139 31.8116 39.7104 29.1686 40.0194 27.9436C40.1171 27.5418 40.1973 27.3019 40.1973 27.3019C40.1973 27.3019 44.5514 28.5799 44.7696 29.1068C44.9703 29.6355 44.5699 34.052 43.5394 34.5391Z" fill="#AFCDFB"/>
<path d="M42.5389 33.69C41.6491 34.0017 40.422 33.6753 39.3843 33.1324C39.1158 31.8291 39.7123 29.1861 40.0212 27.9611C40.665 28.1566 43.8857 29.1511 44.0338 29.5258C44.2033 29.9336 43.5322 33.3491 42.5389 33.69Z" fill="#C7DEFF"/>
<path d="M47.83 16.1138C47.83 16.1138 42.4103 15.4868 39.3763 19.2347C36.3403 22.965 42.2602 29.5618 43.6759 31.1115C45.0915 32.6611 47.3326 30.2628 48.2606 31.582C49.1886 32.9012 46.5638 34.0801 46.5242 35.1686C46.4846 36.2572 48.2311 42.8888 52.66 42.9145C57.089 42.9402 63.3223 36.4569 64.0717 28.7672C64.8582 21.0912 62.9226 10.4993 47.83 16.1138Z" fill="#0E2981"/>
<path d="M44.1956 33.56C44.1956 33.56 48.027 38.1483 62.8381 33.6846C62.8381 33.6846 63.5428 32.8246 63.6491 31.2133C63.6491 31.2133 51.5032 35.6667 44.5595 31.7069L44.1956 33.56Z" fill="#F77D48"/>
</svg>
