<svg width="40" height="40" viewBox="0 0 40 40" fill="none" xmlns="http://www.w3.org/2000/svg">
<g clip-path="url(#clip0)">
<path d="M17.222 5.34834C18.6989 5.34834 19.8962 4.15107 19.8962 2.67417C19.8962 1.19727 18.6989 0 17.222 0C15.7451 0 14.5479 1.19727 14.5479 2.67417C14.5479 4.15107 15.7451 5.34834 17.222 5.34834Z" fill="#279BE7"/>
<path d="M13.4613 21.5656C13.4534 21.6966 13.4999 21.825 13.5898 21.9206C13.6797 22.0163 13.8051 22.0704 13.9365 22.0704H16.5771C16.8115 22.0704 17.0109 21.8998 17.0473 21.6683L17.2362 20.4661L17.5096 21.6976C17.5579 21.9154 17.7511 22.0704 17.9743 22.0704H20.5358C20.6671 22.0704 20.7925 22.0163 20.8824 21.9206C20.9724 21.8251 21.0189 21.6966 21.011 21.5656L20.6534 17.6971H13.819L13.4613 21.5656Z" fill="#279BE7"/>
<path d="M20.6537 15.6658H13.8193V16.7656H20.6537V15.6658Z" fill="#279BE7"/>
<path d="M4.72036 16.6706C5.89218 16.6706 6.84355 15.7209 6.84355 14.5474C6.84355 13.3748 5.89296 12.4242 4.72036 12.4242C3.54776 12.4242 2.59717 13.3748 2.59717 14.5474C2.59717 15.7196 3.54733 16.6706 4.72036 16.6706Z" fill="#279BE7"/>
<path d="M37.6775 37.3158C36.9867 38.0066 35.8626 38.0066 35.1719 37.3158C33.6361 35.78 31.1373 35.78 29.6015 37.3158C28.9107 38.0066 27.7866 38.0066 27.0959 37.3158C26.6728 36.8926 25.9866 36.8926 25.5635 37.3158C25.1403 37.7389 25.1403 38.425 25.5635 38.8482C27.0993 40.3841 29.5981 40.3841 31.1339 38.8482C31.8247 38.1574 32.9487 38.1574 33.6395 38.8482C34.4073 39.6161 35.416 40.0001 36.4247 40.0001C37.4334 40.0001 38.442 39.6161 39.2099 38.8482C39.6331 38.4251 39.6331 37.739 39.2099 37.3158C38.7867 36.8926 38.1005 36.8926 37.6775 37.3158Z" fill="#279BE7"/>
<path d="M31.1339 34.7711C31.8247 34.0803 32.9487 34.0803 33.6395 34.7711C34.4073 35.539 35.416 35.9229 36.4247 35.9229C37.4334 35.9229 38.442 35.539 39.2099 34.7711C39.6331 34.348 39.6331 33.6619 39.2099 33.2387C38.7868 32.8155 38.1006 32.8155 37.6775 33.2387C36.9867 33.9295 35.8626 33.9295 35.1719 33.2387C33.6361 31.7029 31.1373 31.7029 29.6015 33.2387C28.9107 33.9295 27.7866 33.9295 27.0959 33.2387C26.6728 32.8155 25.9866 32.8155 25.5635 33.2387C25.1403 33.6618 25.1403 34.3479 25.5635 34.7711C27.0993 36.307 29.5981 36.307 31.1339 34.7711Z" fill="#279BE7"/>
<path d="M22.5096 20.0147C23.2222 20.0111 23.797 19.4305 23.7935 18.718L23.7459 9.2387C23.7373 7.5635 22.3677 6.20062 20.6924 6.20062C14.3203 6.20062 22.3765 6.20062 13.791 6.20062C12.1157 6.20062 10.746 7.56358 10.7376 9.2387C10.7376 9.2387 10.6924 18.812 10.6971 18.8581L9.34194 19.2917L6.85146 17.46C6.61021 17.2825 6.38318 17.3005 6.23746 17.3005C5.75783 17.5658 5.23234 17.6918 4.72029 17.6918C4.17044 17.6918 3.65327 17.5495 3.20311 17.3005H2.52437C1.45874 17.3005 0.587547 18.1673 0.582346 19.2328L0.552006 25.2618C0.549752 25.715 0.915219 26.0843 1.3685 26.0865H1.37275C1.82403 26.0865 2.19106 25.7218 2.19331 25.27L2.22365 19.241C2.22417 19.1464 2.30115 19.0699 2.39581 19.0702C2.49047 19.0704 2.5671 19.1472 2.5671 19.2419C2.56667 26.9262 2.54924 21.1879 2.54924 31.377C2.54924 31.5669 2.60394 31.7436 2.69704 31.894H1.77245C1.05435 31.894 0.472168 32.4762 0.472168 33.1943C0.472168 33.9124 1.05435 34.4946 1.77245 34.4946H20.8032V38.6998C20.8032 39.4179 21.3854 40.0001 22.1035 40.0001C22.8216 40.0001 23.4037 39.4179 23.4037 38.6998V33.1943C23.4037 32.4762 22.8216 31.894 22.1035 31.894H20.3236C20.5291 31.6313 20.6527 31.3014 20.6527 30.942V23.289H17.556V30.942C17.556 31.3014 17.6796 31.6313 17.8851 31.894H16.5585C16.764 31.6313 16.8876 31.3014 16.8876 30.942V23.289H13.7909V30.942C13.7909 31.3014 13.9145 31.6313 14.12 31.894H6.76581C6.85891 31.7436 6.91361 31.567 6.91361 31.377L6.91396 19.5435L8.70688 20.8621C8.91909 21.0182 9.19301 21.0627 9.44319 20.9826C10.5501 20.6576 11.3111 20.347 12.3701 19.9545C12.882 19.7924 13.2675 19.3112 13.2704 18.7311C13.2725 18.3171 13.316 9.65965 13.3181 9.25179C13.3188 9.1137 13.4312 9.00222 13.5692 9.00257C13.7072 9.00291 13.8189 9.115 13.8189 9.253V14.5646H20.6533V9.25309C20.6533 9.11196 20.7675 8.99745 20.9086 8.99711C21.0497 8.99676 21.1645 9.11058 21.1653 9.25179C21.1653 9.2517 21.1653 9.25179 21.1653 9.25179C21.1673 9.66502 21.2108 18.3196 21.2129 18.7311C21.2165 19.4474 21.8031 20.0149 22.503 20.0149C22.5052 20.0148 22.5075 20.0148 22.5096 20.0147ZM4.37103 31.8939C4.46413 31.7435 4.51883 31.5669 4.51883 31.377V25.165H4.94402V31.377C4.94402 31.5668 4.99872 31.7435 5.09182 31.8939H4.37103Z" fill="#279BE7"/>
</g>
<defs>
<clipPath id="clip0">
<rect width="40" height="40" fill="white"/>
</clipPath>
</defs>
</svg>
