<svg width="40" height="40" viewBox="0 0 40 40" fill="none" xmlns="http://www.w3.org/2000/svg">
<path d="M19.7556 8.13291C21.0566 6.88918 21.1035 4.82852 19.8616 3.52676C18.6191 2.22628 16.5571 2.17875 15.2567 3.41998C13.9557 4.6625 13.9074 6.72316 15.1493 8.02501C16.3918 9.32677 18.4537 9.3755 19.7556 8.13291Z" fill="#279BE7"/>
<path d="M2.29079 10.2622L6.96229 7.9591L9.30835 8.87471L2.23363 15.63C2.66522 15.758 3.07626 15.9673 3.4352 16.277C5.66646 14.2162 9.09159 14.1555 11.3874 16.0989L14.6524 13.1845L15.7519 14.6471C16.6208 14.7011 17.4503 14.9342 18.2039 15.3348L23.6514 14.7129C24.4037 14.6272 24.9432 13.9475 24.8575 13.1963C24.7718 12.444 24.0881 11.9065 23.3403 11.9907L17.6696 12.6377C14.6641 8.64414 15.3235 9.42143 14.1193 8.16053C13.9566 7.98929 13.4052 7.53465 13.1462 7.43326L7.39645 5.1869C7.03944 5.04472 6.63755 5.06311 6.2917 5.23298L1.0787 7.80488C0.400161 8.13821 0.120781 8.96037 0.455475 9.64028C0.794182 10.3243 1.62357 10.5928 2.29079 10.2622Z" fill="#279BE7"/>
<path d="M3.4396 20.9371C4.59453 20.9371 5.67962 20.488 6.49512 19.6709C7.05709 19.1097 7.96884 19.1121 8.52953 19.6722C9.29365 20.4351 10.3088 20.8581 11.3899 20.8581H11.3906C12.471 20.8568 13.4868 20.435 14.301 19.6221C14.8696 19.0516 15.8584 19.0488 16.4336 19.6246C16.9197 20.1122 17.504 20.431 18.1222 20.6209L19.553 19.9147C20.2104 19.5904 20.9753 19.5577 21.6578 19.8249L21.8772 19.9106C22.0319 19.7918 22.1901 19.6774 22.333 19.5338C22.7797 18.9977 22.7243 18.207 22.2091 17.7353C21.6933 17.2663 20.8969 17.2859 20.4042 17.7788C19.8178 18.3625 18.8645 18.3651 18.2756 17.7748C17.4989 16.9974 16.4652 16.5693 15.3657 16.5693H15.3651C14.2656 16.5706 13.2319 16.9988 12.4046 17.8262C11.8637 18.365 10.9211 18.3744 10.3728 17.8221C8.79502 16.2463 6.22641 16.2451 4.64856 17.8262C4.0023 18.4718 2.87587 18.4731 2.22952 17.8248C1.72021 17.3148 0.892834 17.3148 0.383608 17.8248C-0.12634 18.3336 -0.12634 19.1609 0.382243 19.6708C1.19911 20.488 2.28475 20.9371 3.4396 20.9371Z" fill="#279BE7"/>
<path d="M20.1007 21.0267L14.8879 23.5975C14.2087 23.9322 13.93 24.7543 14.2647 25.4328C14.6031 26.1178 15.4327 26.3866 16.1 26.0545L20.7714 23.7515L23.1174 24.6686L22.1286 25.6133L16.3575 31.1234C17.8003 31.1786 19.1555 31.7084 20.226 32.6662C21.7774 31.2802 23.9824 30.8664 25.9482 31.3776L28.4615 28.9783L29.7606 30.7044C30.0604 31.1035 30.5466 31.2986 31.0111 31.2432L37.4605 30.5067C38.213 30.4212 38.7524 29.7413 38.6668 28.9889C38.5811 28.2366 37.8999 27.7003 37.1495 27.7833L31.4787 28.4315C28.3607 24.288 29.1414 25.2219 27.9285 23.9532C27.7658 23.7831 27.2143 23.3272 26.9555 23.227L21.2056 20.9793C20.8485 20.8383 20.4467 20.8569 20.1007 21.0267Z" fill="#279BE7"/>
<path d="M28.958 23.8187C28.962 23.8226 28.9659 23.8253 28.9699 23.8279C30.2124 25.1179 32.2664 25.1641 33.5642 23.9268C34.8653 22.683 34.9122 20.6224 33.6704 19.3205C32.428 18.0189 30.3658 17.9712 29.0655 19.2138C27.7398 20.48 27.7596 22.5618 28.958 23.8187Z" fill="#279BE7"/>
<path d="M39.6176 34.2907C39.1049 33.7809 38.2781 33.7809 37.7709 34.2935C37.18 34.8851 36.3295 34.7599 36.6444 34.7599C36.2176 34.7599 35.8157 34.5939 35.5133 34.2907C33.9216 32.7004 31.1533 32.7019 29.563 34.2935C28.959 34.8969 27.9102 34.8955 27.3047 34.2922C25.7151 32.7005 22.9489 32.6979 21.3533 34.2949C20.7616 34.8862 19.7306 34.8982 19.1259 34.3211L19.0962 34.2922C17.5091 32.7031 14.7871 32.6531 13.0947 34.3436C12.5222 34.914 11.509 34.914 10.9377 34.3422C9.37506 32.7783 6.6503 32.7783 5.08706 34.3422C4.40395 35.0262 3.2108 35.0262 2.52769 34.3422C2.01774 33.8323 1.19164 33.8323 0.681777 34.3422C0.171829 34.8521 0.171829 35.6782 0.681777 36.1882C1.54328 37.0498 2.67517 37.4807 3.80705 37.4807C4.9387 37.4807 6.07059 37.0499 6.93233 36.1882C7.50939 35.6137 8.51275 35.6097 9.09182 36.1896C10.6451 37.7377 13.3376 37.7916 14.9911 36.138C15.5835 35.5451 16.6203 35.536 17.2239 36.1117L17.2528 36.1394C18.8412 37.7284 21.6114 37.7311 23.2018 36.1368C23.8057 35.5332 24.8547 35.5332 25.4593 36.1368C27.0497 37.7284 29.8193 37.7299 31.4089 36.1381C32.0143 35.5347 33.0637 35.536 33.6678 36.1368C35.3134 37.7823 37.9789 37.7799 39.6192 36.1354C40.1281 35.6256 40.1267 34.8008 39.6176 34.2907Z" fill="#279BE7"/>
</svg>
