<svg width="40" height="40" viewBox="0 0 40 40" fill="none" xmlns="http://www.w3.org/2000/svg">
<g clip-path="url(#clip0)">
<path d="M16.519 23.6826C17.1902 23.2225 18.2046 22.5271 19.9994 22.5271C21.7941 22.5271 22.8085 23.2225 23.4799 23.6825C23.9728 24.0204 24.1388 24.1343 24.6889 24.1343C24.8804 24.1343 25.0249 24.12 25.1534 24.0878V21.2086L31.2145 15.078L38.4966 13.0616C39.5877 12.7595 40.2273 11.63 39.9252 10.5389C39.6231 9.44777 38.4934 8.8084 37.4025 9.11035L29.5938 11.2726C29.2488 11.3682 28.9349 11.5524 28.6831 11.807L25.0559 15.4757C24.7781 18.0193 22.6245 20.0023 20.0013 20.0023C19.9739 20.0023 19.9463 20.0021 19.9188 20.0016C17.332 19.9604 15.2225 17.9844 14.9455 15.4771L11.3169 11.807C11.0652 11.5524 10.7512 11.3682 10.4062 11.2726L2.59751 9.11035C1.5068 8.80832 0.377038 9.44777 0.0748506 10.5389C-0.227259 11.63 0.412351 12.7594 1.50344 13.0616L8.78548 15.078L14.6183 20.9777V24.0059C14.8117 24.0981 14.9999 24.1343 15.31 24.1343C15.86 24.1343 16.026 24.0204 16.519 23.6826Z" fill="#279BE7"/>
<path d="M3.13238 26.0024C3.74621 26.4231 4.51004 26.9467 5.93137 26.9467C7.35262 26.9467 8.11652 26.4231 8.73035 26.0024C9.27066 25.6321 9.69746 25.3396 10.6209 25.3396C11.5443 25.3396 11.9711 25.6321 12.5114 26.0024C13.1252 26.4231 13.8891 26.9467 15.3104 26.9467C16.7317 26.9467 17.4956 26.4231 18.1093 26.0024C18.6496 25.6321 19.0764 25.3396 19.9997 25.3396C20.9231 25.3396 21.3499 25.6321 21.8902 26.0024C22.504 26.4231 23.2679 26.9467 24.6893 26.9467C26.1106 26.9467 26.8745 26.4231 27.4883 26.0024C28.0287 25.6321 28.4554 25.3396 29.3789 25.3396C30.3025 25.3396 30.7293 25.6322 31.2696 26.0024C31.8836 26.4231 32.6475 26.9467 34.0689 26.9467C35.4902 26.9467 36.2541 26.4231 36.868 26.0024C37.4084 25.6321 37.8352 25.3396 38.7587 25.3396C39.2025 25.3396 39.5622 24.9799 39.5622 24.5361C39.5622 24.0924 39.2025 23.7326 38.7587 23.7326C37.3373 23.7326 36.5733 24.2562 35.9595 24.6769C35.4191 25.0472 34.9924 25.3396 34.0689 25.3396C33.1453 25.3396 32.7186 25.0471 32.1782 24.6768C31.5643 24.2561 30.8003 23.7325 29.3789 23.7325C27.9576 23.7325 27.1936 24.2561 26.5798 24.6768C26.0394 25.0471 25.6127 25.3395 24.6893 25.3395C23.7658 25.3395 23.339 25.047 22.7987 24.6767C22.1849 24.256 21.421 23.7324 19.9997 23.7324C18.5785 23.7324 17.8146 24.2561 17.2008 24.6767C16.6605 25.047 16.2338 25.3395 15.3104 25.3395C14.387 25.3395 13.9602 25.047 13.4199 24.6767C12.8061 24.256 12.0421 23.7324 10.6209 23.7324C9.19957 23.7324 8.43566 24.256 7.82184 24.6767C7.28152 25.047 6.85473 25.3394 5.93137 25.3394C5.00793 25.3394 4.58121 25.0469 4.0409 24.6767C3.42707 24.256 2.66324 23.7324 1.24199 23.7324C0.798242 23.7324 0.438477 24.0921 0.438477 24.5359C0.438477 24.9797 0.798242 25.3394 1.24199 25.3394C2.16535 25.3395 2.59207 25.632 3.13238 26.0024Z" fill="#279BE7"/>
<path d="M38.7587 29.3574C37.8352 29.3574 37.4084 29.6499 36.868 30.0202C36.2541 30.4409 35.4902 30.9644 34.0689 30.9644C32.6475 30.9644 31.8835 30.4408 31.2696 30.0202C30.7293 29.6499 30.3025 29.3574 29.3789 29.3574C28.4554 29.3574 28.0287 29.6499 27.4883 30.0202C26.8745 30.4409 26.1106 30.9644 24.6893 30.9644C23.2679 30.9644 22.504 30.4408 21.8902 30.0202C21.3499 29.6499 20.9231 29.3574 19.9997 29.3574C19.0764 29.3574 18.6496 29.6499 18.1093 30.0202C17.4956 30.4409 16.7317 30.9644 15.3104 30.9644C13.8891 30.9644 13.1252 30.4408 12.5114 30.0202C11.9711 29.6499 11.5443 29.3574 10.6209 29.3574C9.69746 29.3574 9.27066 29.6499 8.73035 30.0202C8.11652 30.4409 7.35262 30.9644 5.93137 30.9644C4.51004 30.9644 3.74621 30.4408 3.13238 30.0201C2.59207 29.6498 2.16535 29.3573 1.24199 29.3573C0.798242 29.3573 0.438477 28.9976 0.438477 28.5538C0.438477 28.11 0.798242 27.7502 1.24199 27.7502C2.66324 27.7502 3.42707 28.2738 4.0409 28.6945C4.58121 29.0649 5.00793 29.3573 5.93137 29.3573C6.85473 29.3573 7.28152 29.0648 7.82184 28.6945C8.43566 28.2738 9.19957 27.7502 10.6209 27.7502C12.0421 27.7502 12.8061 28.2738 13.4199 28.6945C13.9602 29.0649 14.387 29.3574 15.3104 29.3574C16.2338 29.3574 16.6605 29.0649 17.2008 28.6946C17.8146 28.2739 18.5785 27.7503 19.9997 27.7503C21.421 27.7503 22.1849 28.2739 22.7987 28.6946C23.339 29.0649 23.7658 29.3574 24.6893 29.3574C25.6127 29.3574 26.0394 29.0649 26.5798 28.6947C27.1936 28.274 27.9576 27.7504 29.3789 27.7504C30.8003 27.7504 31.5643 28.274 32.1782 28.6947C32.7186 29.065 33.1453 29.3575 34.0689 29.3575C34.9924 29.3575 35.4191 29.065 35.9595 28.6948C36.5734 28.2741 37.3373 27.7505 38.7587 27.7505C39.2025 27.7505 39.5622 28.1102 39.5622 28.554C39.5622 28.9977 39.2025 29.3574 38.7587 29.3574Z" fill="#279BE7"/>
<path d="M38.7587 27.7502C37.3373 27.7502 36.5733 28.2738 35.9595 28.6945C35.4191 29.0648 34.9924 29.3572 34.0689 29.3572C33.1453 29.3572 32.7186 29.0647 32.1782 28.6944C31.5643 28.2737 30.8003 27.7501 29.3789 27.7501C27.9576 27.7501 27.1936 28.2737 26.5798 28.6944C26.0394 29.0647 25.6127 29.3571 24.6893 29.3571C23.7658 29.3571 23.339 29.0646 22.7987 28.6943C22.1849 28.2736 21.421 27.75 19.9997 27.75C18.5785 27.75 17.8146 28.2737 17.2008 28.6943C16.6605 29.0646 16.2338 29.357 15.3104 29.357C14.387 29.357 13.9602 29.0645 13.4199 28.6942C12.8061 28.2735 12.0421 27.7499 10.6209 27.7499C9.19957 27.7499 8.43566 28.2735 7.82184 28.6942C7.28152 29.0645 6.85473 29.357 5.93137 29.357C5.00793 29.357 4.58121 29.0645 4.0409 28.6942C3.42707 28.2735 2.66324 27.7499 1.24199 27.7499C0.798242 27.7499 0.438477 28.1097 0.438477 28.5535C0.438477 28.9973 0.798242 29.357 1.24199 29.357C2.16535 29.357 2.59207 29.6495 3.13238 30.0198C3.74621 30.4405 4.51004 30.9641 5.93137 30.9641C7.35262 30.9641 8.11652 30.4405 8.73035 30.0199C9.27066 29.6495 9.69746 29.357 10.6209 29.357C11.5443 29.357 11.9711 29.6495 12.5114 30.0199C13.1252 30.4406 13.8891 30.9641 15.3104 30.9641C16.7317 30.9641 17.4956 30.4405 18.1093 30.0199C18.6496 29.6495 19.0764 29.357 19.9997 29.357C20.9231 29.357 21.3499 29.6495 21.8902 30.0199C22.504 30.4406 23.2679 30.9641 24.6893 30.9641C26.1106 30.9641 26.8745 30.4405 27.4883 30.0199C28.0287 29.6495 28.4554 29.357 29.3789 29.357C30.3025 29.357 30.7293 29.6496 31.2696 30.0199C31.8836 30.4406 32.6475 30.9641 34.0689 30.9641C35.4902 30.9641 36.2541 30.4405 36.868 30.0199C37.4084 29.6495 37.8352 29.357 38.7587 29.357C39.2025 29.357 39.5622 28.9974 39.5622 28.5535C39.5622 28.11 39.2025 27.7502 38.7587 27.7502Z" fill="#279BE7"/>
<path d="M19.9338 19.0374C19.9562 19.0378 19.9787 19.038 20.0009 19.038C22.2472 19.038 24.0858 17.2353 24.1217 14.9811C24.158 12.7045 22.342 10.8295 20.0654 10.7932C20.043 10.7928 20.0205 10.7927 19.9983 10.7927C17.752 10.7927 15.9134 12.5953 15.8775 14.8495C15.8412 17.1262 17.6573 19.0011 19.9338 19.0374Z" fill="#279BE7"/>
</g>
<defs>
<clipPath id="clip0">
<rect width="40" height="40" fill="white"/>
</clipPath>
</defs>
</svg>
