<svg width="40" height="40" viewBox="0 0 40 40" fill="none" xmlns="http://www.w3.org/2000/svg">
<g clip-path="url(#clip0)">
<path d="M15.5108 19.8356C16.901 19.8356 18.028 18.7086 18.028 17.3184C18.028 15.9282 16.901 14.8013 15.5108 14.8013C14.1206 14.8013 12.9937 15.9282 12.9937 17.3184C12.9937 18.7086 14.1206 19.8356 15.5108 19.8356Z" fill="#279BE7"/>
<path d="M1.65009 22.9889C2.11923 23.3871 2.82064 23.3728 3.27321 22.9411C3.27391 22.9404 3.27469 22.9399 3.27538 22.9392L4.27264 21.9837L6.30896 20.0327H6.30904L10.8167 21.042L6.79432 21.1824C6.27253 21.6824 7.79816 20.2207 4.15581 23.7104C3.66984 24.176 3.12733 24.4427 2.43528 24.4427C2.21385 24.4427 1.99485 24.4106 1.78435 24.3505L1.60577 24.4972C1.9671 24.5916 2.29851 24.7801 2.56972 25.0513C2.73972 25.2213 2.96678 25.3149 3.20903 25.3149C3.45128 25.3149 3.67826 25.2213 3.84843 25.0512C4.24731 24.6524 4.70093 24.3283 5.19158 24.083C5.89871 23.7295 6.68356 23.5412 7.49816 23.5412C7.86105 23.5412 8.21787 23.5793 8.56489 23.6517C9.50906 23.8486 10.3777 24.3072 11.0844 24.9907L13.6219 22.9494L17.3071 23.5391C17.595 23.5854 17.894 23.5263 18.146 23.3676L22.9727 20.3293C23.5404 19.9719 23.7109 19.2221 23.3536 18.6544C22.9962 18.0869 22.2465 17.9164 21.6788 18.2736L17.2392 21.0682L13.8999 20.5339L12.0039 18.1769C11.4331 17.4673 10.4103 17.3388 9.68149 17.8682L11.1698 18.6201L6.276 17.4541C6.27539 17.454 6.27479 17.4539 6.27418 17.4538C5.87165 17.3644 5.45282 17.492 5.17085 17.7619C5.17067 17.762 5.1705 17.7621 5.17033 17.7623L1.5951 21.1851C1.07704 21.6813 1.09777 22.5198 1.65009 22.9889Z" fill="#279BE7"/>
<path d="M26.551 25.0661C26.0022 24.8004 25.2818 24.6039 24.654 24.6039C23.5596 24.6039 22.5308 25.0301 21.757 25.8039C20.9895 26.5714 19.7407 26.5715 18.9732 25.8039C18.1993 25.0301 17.1704 24.6039 16.0761 24.6039C16.076 24.6039 16.0761 24.6039 16.076 24.6039C14.9817 24.6039 13.9529 25.0301 13.179 25.8038C12.4115 26.5715 11.1627 26.5714 10.3953 25.8039C8.79773 24.2066 6.19868 24.2064 4.60106 25.8039C3.83365 26.5715 2.58478 26.5715 1.81728 25.8039C1.40165 25.3883 0.727821 25.3882 0.312196 25.804C-0.103429 26.2196 -0.103429 26.8934 0.312283 27.3091C1.11101 28.1079 2.16013 28.5071 3.20925 28.5071C4.25846 28.5071 5.30759 28.1078 6.10631 27.3091C6.87373 26.5416 8.12268 26.5416 8.89018 27.3091C10.4876 28.9066 13.0869 28.9065 14.6843 27.3091C15.056 26.9373 15.5503 26.7325 16.0761 26.7325C16.602 26.7325 17.0963 26.9373 17.4682 27.3091C19.0657 28.9065 21.6648 28.9063 23.2623 27.3091C23.634 26.9373 24.1283 26.7325 24.6542 26.7325C25.18 26.7325 25.6742 26.9373 26.0462 27.3091C26.2051 27.4681 26.3744 27.6105 26.5512 27.7379V25.0661H26.551Z" fill="#279BE7"/>
<path d="M21.7575 30.3447C20.9901 31.1123 19.7412 31.1123 18.9737 30.3447C17.3761 28.7472 14.7769 28.7475 13.1796 30.3447C12.4121 31.1124 11.1632 31.1122 10.3958 30.3447C8.79831 28.7474 6.19918 28.7475 4.60165 30.3448C4.22991 30.7166 3.73562 30.9213 3.20975 30.9213C2.68398 30.9213 2.18969 30.7166 1.81786 30.3447C1.40224 29.9291 0.728233 29.9291 0.312695 30.3447C-0.10293 30.7604 -0.10293 31.4342 0.312695 31.8499C1.08661 32.6237 2.11544 33.0498 3.20975 33.0498C4.30415 33.0498 5.33298 32.6237 6.10673 31.8499C6.8744 31.0825 8.12318 31.0824 8.8906 31.8499C9.66452 32.6237 10.6933 33.0498 11.7877 33.0498C12.8821 33.0498 13.9109 32.6237 14.6848 31.8499C15.4522 31.0823 16.7012 31.0823 17.4685 31.8499C18.2424 32.6237 19.2713 33.0498 20.3656 33.0498C21.46 33.0498 22.4888 32.6237 23.2627 31.8499C24.0301 31.0823 25.2791 31.0823 26.0464 31.8499C26.2054 32.0089 26.3747 32.1514 26.5515 32.2787V29.609C25.973 29.306 25.3263 29.1448 24.6545 29.1448C23.5603 29.1448 22.5314 29.571 21.7575 30.3447Z" fill="#279BE7"/>
<path d="M32.0633 6.93279C33.852 6.93279 35.3019 5.48282 35.3019 3.69418C35.3019 1.90554 33.852 0.455566 32.0633 0.455566C30.2747 0.455566 28.8247 1.90554 28.8247 3.69418C28.8247 5.48282 30.2747 6.93279 32.0633 6.93279Z" fill="#279BE7"/>
<path d="M27.9145 27.717C27.9051 27.717 27.8964 27.716 27.8872 27.7156V37.9284C27.8872 38.9641 28.7267 39.8035 29.7624 39.8035C30.7981 39.8035 31.6375 38.9641 31.6375 37.9284V27.717H27.9145Z" fill="#279BE7"/>
<path d="M32.4473 27.717V37.9283C32.4473 38.3288 32.5739 38.6993 32.7879 39.004C33.1271 39.487 33.6874 39.8035 34.3224 39.8035C35.3581 39.8035 36.1976 38.964 36.1976 37.9283V27.717H32.4473Z" fill="#279BE7"/>
<path d="M36.163 21.2772H27.8861L27.732 25.7158C27.7229 25.8661 27.7762 26.0134 27.8794 26.1232C27.9826 26.2328 28.1265 26.295 28.2771 26.295H31.2161C31.4722 26.295 31.6938 26.1171 31.7493 25.8672L32.063 24.4542L32.2796 25.8336C32.3213 26.0992 32.5502 26.295 32.8191 26.295H35.8489C35.9995 26.295 36.1433 26.2328 36.2466 26.1232C36.3498 26.0134 36.4031 25.8661 36.394 25.7158L36.163 21.2772Z" fill="#279BE7"/>
<path d="M36.1632 18.9465H27.8862V20.2084H36.1632V18.9465Z" fill="#279BE7"/>
<path d="M39.9424 11.6445C39.9321 9.61562 38.2733 7.96509 36.2445 7.96509C34.8802 7.96509 30.2856 7.96509 28.9312 7.96509C28.6434 7.96509 28.3612 8.04462 28.1157 8.19476L25.6413 9.70859L26.1334 7.35232C26.2622 6.73504 26.0066 6.12799 25.5307 5.77638V5.0852H26.1267C27.0127 5.0852 27.7311 4.36688 27.7311 3.48081C27.7311 2.59475 27.0127 1.87642 26.1267 1.87642H22.8871L20.4161 0.270559C20.2752 0.178969 20.0954 0.171857 19.9477 0.252085C19.8 0.332226 19.708 0.486785 19.708 0.654874V6.30675C19.708 6.47484 19.8 6.6294 19.9477 6.70954C20.0954 6.78968 20.2752 6.78257 20.4161 6.69098L22.887 5.08511H23.6767V5.77698C23.3785 5.99703 23.1558 6.32193 23.074 6.71327L21.8429 12.6089C21.7155 13.219 21.963 13.8465 22.4725 14.2056C22.9813 14.5642 23.6557 14.5869 24.188 14.2612L27.8862 11.9987V17.5714H36.1632V11.6704C36.1632 11.4918 36.3064 11.3463 36.4849 11.3433C36.6635 11.3405 36.8115 11.4813 36.8171 11.6598C36.8171 11.6599 36.8171 11.6599 36.8171 11.6599L36.8748 23.14C36.8778 23.7162 37.1929 24.2166 37.6583 24.4852C37.8878 24.6178 38.1534 24.6948 38.4373 24.6948H38.4453C39.3083 24.6904 40.0044 23.9873 40.0001 23.1243L39.9424 11.6445Z" fill="#279BE7"/>
</g>
<defs>
<clipPath id="clip0">
<rect width="40" height="40" fill="white"/>
</clipPath>
</defs>
</svg>
