<svg width="65" height="10" viewBox="0 0 65 10" fill="none" xmlns="http://www.w3.org/2000/svg">
<path d="M1 1.00002L4.9375 3.76924C7.29966 5.43052 10.4503 5.43052 12.8125 3.76923V3.76923C15.1747 2.10795 18.3253 2.10795 20.6875 3.76923V3.76923C23.0497 5.43052 26.2003 5.43052 28.5625 3.76923V3.76923C30.9247 2.10795 34.0753 2.10795 36.4375 3.76923V3.76923C38.7997 5.43052 41.9503 5.43052 44.3125 3.76923V3.76923C46.6747 2.10795 49.8253 2.10795 52.1875 3.76923V3.76923C54.5497 5.43052 57.7003 5.43052 60.0625 3.76923L64 1.00002" stroke="#209CDC"/>
<path d="M1 4.46156L4.9375 7.23078C7.29966 8.89207 10.4503 8.89207 12.8125 7.23078V7.23078C15.1747 5.56949 18.3253 5.56949 20.6875 7.23078V7.23078C23.0497 8.89207 26.2003 8.89207 28.5625 7.23078V7.23078C30.9247 5.56949 34.0753 5.56949 36.4375 7.23078V7.23078C38.7997 8.89207 41.9503 8.89207 44.3125 7.23078V7.23078C46.6747 5.56949 49.8253 5.56949 52.1875 7.23078V7.23078C54.5497 8.89207 57.7003 8.89207 60.0625 7.23078L64 4.46156" stroke="#209CDC"/>
</svg>
