<?xml version="1.0" encoding="utf-8"?>
<!-- Generator: Adobe Illustrator 24.1.2, SVG Export Plug-In . SVG Version: 6.00 Build 0)  -->
<svg version="1.1" id="Слой_1" xmlns="http://www.w3.org/2000/svg" xmlns:xlink="http://www.w3.org/1999/xlink" x="0px" y="0px"
	 viewBox="0 0 1344 785" style="enable-background:new 0 0 1344 785;" xml:space="preserve">
<style type="text/css">
	.st0{fill:#FFFFFF;filter:url(#Adobe_OpacityMaskFilter);}
	.st1{mask:url(#path-1-inside-1_1_);fill:none;stroke:url(#SVGID_1_);stroke-width:2;stroke-dasharray:20,20;}
	.st2{fill:#FFFFFF;filter:url(#Adobe_OpacityMaskFilter_1_);}
	.st3{mask:url(#path-1-inside-1_2_);fill:none;stroke:url(#SVGID_2_);stroke-width:2;stroke-dasharray:20,20;}
	.st4{fill:#FFFFFF;filter:url(#Adobe_OpacityMaskFilter_2_);}
	.st5{mask:url(#path-1-inside-1_3_);fill:none;stroke:url(#SVGID_3_);stroke-width:2;stroke-dasharray:20,20;}
	.st6{fill:#279BE7;}
</style>
<defs>
	<filter id="Adobe_OpacityMaskFilter" filterUnits="userSpaceOnUse" x="-1" y="-1" width="1346" height="599">
		<feColorMatrix  type="matrix" values="1 0 0 0 0  0 1 0 0 0  0 0 1 0 0  0 0 0 1 0"/>
	</filter>
</defs>
<mask maskUnits="userSpaceOnUse" x="-1" y="-1" width="1346" height="599" id="path-1-inside-1_1_">
	<path class="st0" d="M1344,0c0,158.3-70.8,310.2-196.8,422.1c-126,112-297,174.9-475.2,174.9c-178.2,0-349.2-62.9-475.2-174.9
		C70.8,310.2,0,158.3,0,0l672,0H1344z"/>
</mask>
<linearGradient id="SVGID_1_" gradientUnits="userSpaceOnUse" x1="672" y1="624.5" x2="672" y2="1" gradientTransform="matrix(1 0 0 -1 0 598)">
	<stop  offset="0" style="stop-color:#000000;stop-opacity:0"/>
	<stop  offset="1" style="stop-color:#000000;stop-opacity:0.26"/>
</linearGradient>
<path class="st1" d="M1344,0c0,158.3-70.8,310.2-196.8,422.1c-126,112-297,174.9-475.2,174.9c-178.2,0-349.2-62.9-475.2-174.9
	C70.8,310.2,0,158.3,0,0l672,0H1344z"/>
<defs>
	<filter id="Adobe_OpacityMaskFilter_1_" filterUnits="userSpaceOnUse" x="-1" y="86.9" width="1346" height="599">
		<feColorMatrix  type="matrix" values="1 0 0 0 0  0 1 0 0 0  0 0 1 0 0  0 0 0 1 0"/>
	</filter>
</defs>
<mask maskUnits="userSpaceOnUse" x="-1" y="86.9" width="1346" height="599" id="path-1-inside-1_2_">
	<path class="st2" d="M1344,87.9c0,158.3-70.8,310.2-196.8,422.1c-126,112-297,174.9-475.2,174.9c-178.2,0-349.2-62.9-475.2-174.9
		C70.8,398,0,246.2,0,87.9l672,0H1344z"/>
</mask>
<linearGradient id="SVGID_2_" gradientUnits="userSpaceOnUse" x1="672" y1="536.645" x2="672" y2="-86.855" gradientTransform="matrix(1 0 0 -1 0 598)">
	<stop  offset="0" style="stop-color:#000000;stop-opacity:0"/>
	<stop  offset="1" style="stop-color:#000000;stop-opacity:0.26"/>
</linearGradient>
<path class="st3" d="M1344,87.9c0,158.3-70.8,310.2-196.8,422.1c-126,112-297,174.9-475.2,174.9c-178.2,0-349.2-62.9-475.2-174.9
	C70.8,398,0,246.2,0,87.9l672,0H1344z"/>
<defs>
	<filter id="Adobe_OpacityMaskFilter_2_" filterUnits="userSpaceOnUse" x="-1" y="164.8" width="1346" height="599">
		<feColorMatrix  type="matrix" values="1 0 0 0 0  0 1 0 0 0  0 0 1 0 0  0 0 0 1 0"/>
	</filter>
</defs>
<mask maskUnits="userSpaceOnUse" x="-1" y="164.8" width="1346" height="599" id="path-1-inside-1_3_">
	<path class="st4" d="M1344,165.8c0,158.3-70.8,310.2-196.8,422.1c-126,112-297,174.9-475.2,174.9c-178.2,0-349.2-62.9-475.2-174.9
		C70.8,476,0,324.1,0,165.8l672,0H1344z"/>
</mask>
<linearGradient id="SVGID_3_" gradientUnits="userSpaceOnUse" x1="672" y1="458.7033" x2="672" y2="-164.7967" gradientTransform="matrix(1 0 0 -1 0 598)">
	<stop  offset="0" style="stop-color:#000000;stop-opacity:0"/>
	<stop  offset="1" style="stop-color:#000000;stop-opacity:0.26"/>
</linearGradient>
<path class="st5" d="M1344,165.8c0,158.3-70.8,310.2-196.8,422.1c-126,112-297,174.9-475.2,174.9c-178.2,0-349.2-62.9-475.2-174.9
	C70.8,476,0,324.1,0,165.8l672,0H1344z"/>
<circle class="st6" cx="662" cy="762.8" r="10"/>
<circle class="st6" cx="1220.6" cy="345.5" r="10"/>
<circle class="st6" cx="177.1" cy="491.1" r="10"/>
</svg>
