<svg width="197" height="52" viewBox="0 0 197 52" fill="none" xmlns="http://www.w3.org/2000/svg">
<rect x="41" y="13" width="156" height="26" fill="white"/>
<path d="M71.52 19.8V28.536H68.8V19.8H66.24V28.536H63.52V19.8H60.96V31H74.08V19.8H71.52ZM83.6069 31L80.6149 27L83.5269 23H80.7269L78.3269 26.504V23H75.9269V31H78.3269V27.464L80.8869 31H83.6069ZM87.845 31.224C90.197 31.224 92.085 29.384 92.085 27C92.085 24.616 90.197 22.776 87.845 22.776C85.493 22.776 83.605 24.616 83.605 27C83.605 29.384 85.493 31.224 87.845 31.224ZM87.845 28.888C86.805 28.888 86.005 28.136 86.005 27C86.005 25.864 86.805 25.112 87.845 25.112C88.885 25.112 89.685 25.864 89.685 27C89.685 28.136 88.885 28.888 87.845 28.888ZM100.246 23H93.7183V27.528C93.7183 28.52 93.3183 28.984 92.5663 28.76V31C94.9023 31.272 96.1183 30.104 96.1183 27.688V25.304H97.8463V31H100.246V23ZM107.813 23V23.752C107.285 23.144 106.501 22.776 105.429 22.776C103.333 22.776 101.605 24.616 101.605 27C101.605 29.384 103.333 31.224 105.429 31.224C106.501 31.224 107.285 30.856 107.813 30.248V31H110.213V23H107.813ZM105.909 28.952C104.805 28.952 104.005 28.2 104.005 27C104.005 25.8 104.805 25.048 105.909 25.048C107.013 25.048 107.813 25.8 107.813 27C107.813 28.2 107.013 28.952 105.909 28.952ZM123.494 23H115.974V31H118.374V25.24H121.094V31H123.494V23ZM132.215 23H125.687V27.528C125.687 28.52 125.287 28.984 124.535 28.76V31C126.871 31.272 128.087 30.104 128.087 27.688V25.304H129.815V31H132.215V23ZM139.782 23V23.752C139.254 23.144 138.47 22.776 137.398 22.776C135.302 22.776 133.574 24.616 133.574 27C133.574 29.384 135.302 31.224 137.398 31.224C138.47 31.224 139.254 30.856 139.782 30.248V31H142.182V23H139.782ZM137.878 28.952C136.774 28.952 135.974 28.2 135.974 27C135.974 25.8 136.774 25.048 137.878 25.048C138.982 25.048 139.782 25.8 139.782 27C139.782 28.2 138.982 28.952 137.878 28.952ZM149.911 26.904C150.407 26.536 150.663 25.976 150.663 25.288C150.663 23.96 149.719 23 147.943 23H143.943V31H148.263C150.039 31 150.983 30.04 150.983 28.712C150.983 27.896 150.599 27.272 149.911 26.904ZM147.687 24.92C148.119 24.92 148.391 25.096 148.391 25.496C148.391 25.88 148.119 26.04 147.687 26.04H146.183V24.92H147.687ZM147.943 29.016H146.183V27.864H147.943C148.359 27.864 148.647 28.04 148.647 28.424C148.647 28.824 148.359 29.016 147.943 29.016ZM157.985 23V23.752C157.457 23.144 156.673 22.776 155.601 22.776C153.505 22.776 151.777 24.616 151.777 27C151.777 29.384 153.505 31.224 155.601 31.224C156.673 31.224 157.457 30.856 157.985 30.248V31H160.385V23H157.985ZM156.081 28.952C154.977 28.952 154.177 28.2 154.177 27C154.177 25.8 154.977 25.048 156.081 25.048C157.185 25.048 157.985 25.8 157.985 27C157.985 28.2 157.185 28.952 156.081 28.952ZM167.266 23V25.88H164.546V23H162.146V31H164.546V28.12H167.266V31H169.666V23H167.266ZM177.187 23L173.763 27V23H171.427V31H173.187L176.611 27V31H178.947V23H177.187ZM187.348 23H183.444C181.508 23 180.468 24.44 180.468 25.848C180.468 26.84 181.028 27.864 182.02 28.36L180.148 31H182.868L184.516 28.696H185.012V31H187.348V23ZM183.652 25.112H185.012V26.712H183.652C183.14 26.712 182.804 26.424 182.804 25.928C182.804 25.416 183.14 25.112 183.652 25.112Z" fill="#279BE7"/>
<circle cx="26" cy="26" r="26" fill="#279BE7"/>
<circle cx="26" cy="26" r="12" fill="white"/>
</svg>
