<svg width="162" height="143" viewBox="0 0 162 143" fill="none" xmlns="http://www.w3.org/2000/svg">
<path d="M66.834 44.5767L82.5845 59.8446L89.4535 61.0739C82.6991 77.6204 88.5375 84.8495 83.4593 86.9655C83.4593 86.9655 78.4332 84.2737 76.6083 83.0262C74.7835 81.7788 71.6956 80.4035 69.1671 78.397L53.2936 66.2028C53.2936 66.2028 42.6425 60.1434 44.7205 55.8698C45.4681 54.3233 45.3551 51.2224 43.9845 50.1545C43.7749 49.988 40.5883 47.2114 38.2051 45.6045L46.0808 40.5861C46.0808 40.5861 50.0892 43.5132 51.0993 43.9924C51.1788 44.0214 51.2497 44.0645 51.3292 44.0935C52.4701 44.6134 53.824 43.922 54.7717 43.0998C60.567 38.0194 66.834 44.5767 66.834 44.5767Z" fill="#FFB27D"/>
<path d="M64.9305 47.8294C65.1684 48.0131 65.2059 48.3664 65.0221 48.6043C64.8384 48.8422 64.4851 48.8798 64.2473 48.696C64.0094 48.5123 63.9719 48.159 64.1557 47.9211C64.3536 47.6918 64.6926 47.6456 64.9305 47.8294Z" fill="#ED975D"/>
<path d="M56.5599 58.3189C56.7978 58.5026 56.8353 58.8559 56.6515 59.0938C56.4677 59.3317 56.1145 59.3693 55.8766 59.1855C55.6388 59.0018 55.6013 58.6485 55.785 58.4106C55.9774 58.1585 56.3307 58.121 56.5599 58.3189Z" fill="#ED975D"/>
<path d="M89.4619 61.0598C89.4619 61.0598 113.148 69.6158 119.072 77.6939C124.995 85.7719 128.766 99.555 128.766 99.555L123.65 100.968C123.65 100.968 113.678 85.2735 109.132 83.1656C104.586 81.0577 83.6144 75.2238 83.6144 75.2238L89.4619 61.0598Z" fill="#FFB27D"/>
<path d="M128.78 99.5636C128.78 99.5636 131.49 102.963 135.058 104.572C138.625 106.181 140.669 107.388 139.482 108.666C138.295 109.945 132.95 109.022 130.398 108.809C127.837 108.61 123.107 109.772 123.678 100.985L128.78 99.5636Z" fill="#FFB27D"/>
<path d="M85.714 70.6913C85.714 70.6913 107.669 84.3544 110.431 93.986C112.081 99.733 102.86 117.362 102.86 117.362L98.0926 117.277C98.0926 117.277 100.473 97.6385 99.4644 96.869C95.4653 93.8309 76.6252 82.9979 76.6252 82.9979L85.714 70.6913Z" fill="#FFB27D"/>
<path d="M102.895 117.209C102.895 117.209 101.581 121.345 102.227 125.198C102.873 129.051 103.025 131.418 101.305 131.147C99.5844 130.877 97.3773 125.918 96.1199 123.675C94.8625 121.432 91.2549 118.166 98.8735 113.729L102.895 117.209Z" fill="#FFB27D"/>
<path d="M54.7629 43.1141C54.7629 43.1141 57.2819 40.1586 57.6137 31.8284C57.8809 25.072 48.4422 9.2363 48.4422 9.2363L51.0527 7.50268C51.0527 7.50268 64.5003 22.3398 65.8344 27.5837C67.1686 32.8277 66.8425 44.5626 66.8425 44.5626L54.7629 43.1141Z" fill="#FFB27D"/>
<path d="M48.442 9.23628C48.442 9.23628 46.034 7.92522 45.8776 7.4801C45.744 7.02944 47.5117 7.44527 47.3596 7.21653C47.2074 6.9878 45.2246 4.24477 46.0181 3.4842C47.1213 2.40683 48.3001 3.63012 49.3219 4.50508C50.3436 5.38003 51.0438 7.51683 51.0438 7.51683L48.442 9.23628Z" fill="#FFB27D"/>
<path d="M44.9906 55.4904C44.9906 55.4904 43.5206 59.0847 36.2714 63.2019C30.3908 66.5396 11.9897 65.4197 11.9897 65.4197L11.6472 68.5346C11.6472 68.5346 31.0007 73.6747 36.2721 72.4538C41.5436 71.233 52.9405 65.7936 52.9405 65.7936L44.9906 55.4904Z" fill="#FFB27D"/>
<path d="M11.9896 65.4196C11.9896 65.4196 9.71981 63.8817 9.25254 63.947C8.79081 64.0351 9.97145 65.4149 9.69838 65.3847C9.42531 65.3544 6.07828 64.8514 5.76665 65.9055C5.31558 67.38 6.94341 67.866 8.18967 68.3724C9.43592 68.8788 11.6558 68.5204 11.6558 68.5204L11.9896 65.4196Z" fill="#FFB27D"/>
<path d="M41.5654 47.9041C41.5654 47.9041 44.4328 48.6203 49.1176 42.7469L47.9134 41.9163L41.5654 47.9041Z" fill="#ED975D"/>
<path d="M49.2345 39.3001C49.2345 39.3001 45.4422 51.334 37.0637 47.6694C28.6851 44.0048 25.5085 36.7447 27.0068 33.6145C30.0317 27.3716 33.136 27.5713 36.2093 28.1408C39.2912 28.6962 51.0504 33.7978 49.2345 39.3001Z" fill="#FFB27D"/>
<path d="M42.8269 39.7705C42.8269 39.7705 44.5985 39.6056 45.4043 37.4531C45.4043 37.4531 46.3278 35.139 44.5077 34.4581C44.5219 34.4667 42.8339 37.0149 42.8269 39.7705Z" fill="white"/>
<path d="M41.723 48.1552C41.723 48.1552 39.1972 49.1435 36.1603 46.5359C36.1603 46.5359 33.8924 46.8456 33.4737 45.1718C33.0661 43.5436 36.0015 43.8931 35.8025 43.4221C35.6035 42.9511 29.5076 39.3356 30.8475 38.1886C38.4426 31.7165 34.6622 23.6611 34.6622 23.6611C34.6622 23.6611 21.0588 27.8733 20.7478 38.6262C20.4086 51.0529 37.3626 55.3146 41.723 48.1552Z" fill="#0E2981"/>
<path d="M23.1629 46.1802C23.1629 46.1802 21.445 45.9697 20.615 44.9394C20.615 44.9394 22.0936 45.6067 23.0091 45.348C23.9301 45.112 23.1629 46.1802 23.1629 46.1802Z" fill="#0E2981"/>
<path d="M22.2165 45.4681C22.2165 45.4681 21.4567 46.7157 22.212 47.8366C22.212 47.8366 21.9955 46.5969 23.1126 45.9751L22.2165 45.4681Z" fill="#0E2981"/>
<path d="M83.4761 86.9372L91.2608 75.5273C91.2608 75.5273 93.0126 71.9491 94.3211 68.6839C95.3575 66.0888 96.1023 63.6853 95.4693 63.4164C94.0215 62.8262 80.3471 57.6465 80.3471 57.6465C80.3471 57.6465 75.8351 68.7562 66.5247 76.3216C66.5019 76.3271 71.692 82.5785 83.4761 86.9372Z" fill="#F77D48"/>
<path d="M36.9936 74.3317L47.5111 70.1448C48.6825 69.4977 49.1194 68.0146 48.4867 66.8518L46.535 63.292L43.8409 58.3665C43.194 57.1951 41.711 56.7584 40.5396 57.4054L31.0669 63.7058C29.8955 64.3529 29.229 64.841 29.8758 66.0124L32.2915 70.4378L33.7454 73.092C34.3726 74.2319 35.808 74.9701 36.9936 74.3317Z" fill="#F77D48"/>
<path d="M57.0361 42.0301L61.7863 42.1438L61.8004 42.1524L66.7213 42.2729C68.059 42.3102 69.1763 41.2414 69.2137 39.9037L68.1076 28.6376C68.145 27.2999 66.8305 26.3632 65.4929 26.326L64.4369 26.3048L57.4128 26.1278C56.0752 26.0906 55.9473 26.9067 55.9099 28.2445L54.6587 39.5521C54.63 40.8756 55.6985 41.9928 57.0361 42.0301Z" fill="#F77D48"/>
<path d="M36.9937 74.3316L47.5112 70.1447C48.6827 69.4976 49.1195 68.0145 48.4868 66.8517L46.5351 63.2919C46.5351 63.2919 46.9459 66.574 44.5123 68.2405C42.0788 69.9069 35.8329 72.5362 34.435 72.1513C33.1024 71.7867 32.3791 70.5493 32.3003 70.4236L33.7542 73.0777C34.3727 74.2318 35.8081 74.97 36.9937 74.3316Z" fill="#E26337"/>
<path d="M61.7861 42.1439L66.707 42.2644C68.0446 42.3017 69.1619 41.2329 69.1993 39.8952L68.0933 28.6291C68.1307 27.2914 66.8162 26.3547 65.4786 26.3175L64.4226 26.2963C64.4226 26.2963 65.3847 26.7268 65.6308 28.2372C65.8911 29.7562 66.1946 38.8621 64.2166 40.5144C62.4531 42.0059 61.8915 42.1304 61.7861 42.1439Z" fill="#E26337"/>
<path d="M91.261 75.5274C91.261 75.5274 85.6382 70.9756 85.0757 68.2618C85.0757 68.2618 88.611 71.6783 92.5317 72.8029L91.261 75.5274Z" fill="#E26337"/>
</svg>
