<svg width="162" height="173" viewBox="0 0 162 173" fill="none" xmlns="http://www.w3.org/2000/svg">
<path d="M76.3716 55.9158L71.1104 76.9133L65.9906 81.5125C80.2589 91.8779 79.1285 100.949 84.4794 100.08C84.4794 100.08 87.2813 95.2075 88.1744 93.2034C89.0675 91.1992 90.936 88.4504 91.9927 85.4509L98.9566 66.971C98.9566 66.971 104.723 56.3505 100.758 53.847C99.3191 52.9403 97.8083 50.2803 98.3968 48.6812C98.4856 48.4266 99.7138 44.4558 100.888 41.8553L91.6845 41.7752C91.6845 41.7752 89.8482 46.3171 89.2386 47.2467C89.1825 47.3182 89.1504 47.3818 89.0943 47.4533C88.4125 48.4862 86.9138 48.6071 85.6954 48.4105C78.2019 47.1586 76.3716 55.9158 76.3716 55.9158Z" fill="#FFB27D"/>
<path d="M79.6634 57.6592C79.5586 57.9456 79.7087 58.2411 79.9952 58.3459C80.2816 58.4507 80.5771 58.3006 80.6819 58.0142C80.7867 57.7278 80.6366 57.4323 80.3501 57.3275C80.0796 57.2307 79.7602 57.3887 79.6634 57.6592Z" fill="#ED975D"/>
<path d="M92.1243 62.0803C92.0195 62.3667 92.1697 62.6622 92.4561 62.767C92.7425 62.8719 93.038 62.7218 93.1428 62.4354C93.2476 62.1489 93.0975 61.8535 92.8111 61.7486C92.5406 61.6518 92.2291 61.7939 92.1243 62.0803Z" fill="#ED975D"/>
<path d="M65.9905 81.5124C65.9905 81.5124 50.599 101.023 49.84 110.861C49.0809 120.698 53.0875 134.222 53.0875 134.222L58.1143 132.73C58.1143 132.73 58.2959 114.396 61.0151 110.24C63.7263 106.101 78.2652 90.2913 78.2652 90.2913L65.9905 81.5124Z" fill="#FFB27D"/>
<path d="M53.0795 134.238C53.0795 134.238 52.5832 138.499 50.4259 141.701C48.2845 144.91 47.184 146.969 48.8475 147.431C50.5111 147.892 54.5108 144.324 56.5493 142.819C58.5878 141.314 63.1683 139.836 58.1142 132.77L53.0795 134.238Z" fill="#FFB27D"/>
<path d="M74.1412 87.6277C74.1412 87.6277 63.9162 110.269 65.5483 119.997C67.1962 129.734 74.3484 141.893 74.3484 141.893L78.8622 139.243C78.8622 139.243 74.603 121.399 76.2486 116.721C77.8942 112.043 88.1747 93.2031 88.1747 93.2031L74.1412 87.6277Z" fill="#FFB27D"/>
<path d="M74.3399 141.909C74.3399 141.909 74.8877 146.158 73.5733 149.786C72.2589 153.414 71.7073 155.691 73.4285 155.722C75.1497 155.753 78.1727 151.352 79.7828 149.391C81.3929 147.43 85.4838 144.906 78.8776 139.251L74.3399 141.909Z" fill="#FFB27D"/>
<path d="M85.7114 48.4183C85.7114 48.4183 82.0666 47.255 77.4417 40.4458C73.7038 34.9233 73.3748 16.7302 73.3748 16.7302L70.2832 16.645C70.2832 16.645 66.7499 36.0802 68.3539 41.163C69.958 46.2459 76.3478 55.9234 76.3478 55.9234L85.7114 48.4183Z" fill="#FFB27D"/>
<path d="M73.3986 16.7225C73.3986 16.7225 74.7474 14.3698 74.6378 13.9151C74.5282 13.4604 73.2397 14.7457 73.2568 14.4748C73.2579 14.1959 73.5032 10.8662 72.4363 10.6464C70.9395 10.3291 70.5979 11.9532 70.194 13.2263C69.7901 14.4995 70.3229 16.6453 70.3229 16.6453L73.3986 16.7225Z" fill="#FFB27D"/>
<path d="M99.2787 45.5535C99.2787 45.5535 97.2457 47.6403 90.2514 45.1634L90.8229 43.8352L99.2787 45.5535Z" fill="#ED975D"/>
<path d="M88.3826 42.3423C88.3826 42.3423 97.8233 50.4475 102.939 43.0115C108.055 35.5755 106.932 27.8413 104.048 26.0039C98.2696 22.3451 95.7677 24.135 93.4797 26.2128C91.1998 28.2746 83.9914 38.6656 88.3826 42.3423Z" fill="#FFB27D"/>
<path d="M93.9978 39.4108C93.9978 39.4108 92.4246 40.1928 90.6295 38.8064C90.6295 38.8064 88.6514 37.3475 89.8133 35.8386C89.8133 35.8386 92.5493 37.1016 93.9978 39.4108Z" fill="white"/>
<path d="M99.2856 45.8563C99.2856 45.8563 101.925 45.3738 103.097 41.5939C103.097 41.5939 105.157 40.6786 104.638 39.0588C104.135 37.4868 101.84 39.3015 101.77 38.8072C101.7 38.3128 104.753 32.6288 103.194 31.8411C101.636 31.0534 93.178 27.9168 92.2056 24.2312C91.2172 20.5375 104.252 17.3434 111.885 26.9706C119.511 36.5739 111.907 46.1664 99.2856 45.8563Z" fill="#2C3A64"/>
<path d="M113.814 34.5329C113.814 34.5329 115.141 33.4471 115.29 32.1648C115.29 32.1648 114.4 33.4916 113.506 33.7587C112.613 34.0257 113.814 34.5329 113.814 34.5329Z" fill="#2C3A64"/>
<path d="M114.225 33.4431C114.225 33.4431 115.513 34.0941 115.459 35.4246C115.459 35.4246 115.002 34.2752 113.735 34.3334L114.225 33.4431Z" fill="#2C3A64"/>
<path d="M134.292 102.377C132.852 107.439 129.488 111.448 125.206 113.836C120.925 116.224 115.741 116.998 110.695 115.565L39.3549 95.3806C29.2385 92.5236 23.307 81.8998 26.1631 71.7846C27.2957 67.8053 29.6209 64.4688 32.6594 62.0518C33.3631 61.4891 34.1223 60.9744 34.9132 60.5157C39.0275 58.1034 44.0278 57.2168 48.9636 58.3938C49.4253 58.5074 49.8869 58.6608 50.3404 58.8301C54.135 60.3687 76.0839 69.2058 84.2105 71.4964C92.1938 73.7544 115.462 77.8084 120.24 78.6261C120.957 78.7487 121.649 78.9191 122.341 79.1691C127.569 81.0327 131.537 85.0342 133.556 89.8877C135.149 93.7275 135.497 98.0956 134.292 102.377Z" fill="#F77D48"/>
<path d="M133.548 89.9037C132.675 90.9995 132.031 92.4709 130.687 93.7877C128.254 96.1915 120.259 89.2161 116.815 85.6791C113.372 82.1421 113.753 89.8013 103.487 90.4018C93.2043 90.9944 90.2307 80.0488 88.6169 79.1334C86.9791 78.2258 81.2624 88.2728 76.013 85.8992C70.7557 83.5017 74.6375 73.9248 72.3352 71.8828C70.0328 69.8408 64.8871 78.6791 61.3159 77.0539C57.7289 75.4206 60.0952 69.9089 56.0671 68.9112C52.0391 67.9135 47.1449 73.8046 43.9806 72.0856C40.8241 70.3905 43.2024 65.8031 40.7578 63.4896C38.3132 61.1761 32.6754 62.0598 32.6754 62.0598C33.3791 61.4972 34.1383 60.9825 34.9292 60.5238C39.0435 58.1115 44.0438 57.2249 48.9796 58.4019C49.4413 58.5155 49.9029 58.6689 50.3564 58.8382C54.1511 60.3767 76.0999 69.2139 84.2265 71.5045C92.2098 73.7625 115.478 77.8165 120.256 78.6342C120.973 78.7568 121.665 78.9272 122.357 79.1772C127.561 81.0486 131.537 85.0343 133.548 89.9037Z" fill="white"/>
<path d="M100.98 53.9995C100.98 53.9995 104.514 56.9234 106.021 60.5397C107.544 64.1639 111.19 78.0846 109.508 81.8861C107.827 85.6876 101.939 92.7139 101.939 92.7139L99.6769 90.6721C99.6769 90.6721 104.494 80.4299 103.396 78.2577C102.297 76.0855 96.4493 66.3625 96.4493 66.3625L100.98 53.9995Z" fill="#FFB27D"/>
<path d="M99.6844 90.6558C99.6844 90.6558 96.6766 91.4713 96.152 93.0229C95.9341 93.6514 98.1372 92.8084 97.9527 93.0945C97.7841 93.3886 95.9917 95.1179 96.2432 95.9238C96.4948 96.7297 99.5348 95.8505 100.143 95.3591C100.734 94.8597 101.955 92.6817 101.955 92.6817L99.6844 90.6558Z" fill="#FFB27D"/>
</svg>
