<svg width="184" height="184" viewBox="0 0 184 184" fill="none" xmlns="http://www.w3.org/2000/svg">
<rect y="78.2563" width="131" height="131" rx="20" transform="rotate(-36.6823 0 78.2563)" fill="#EDF9FF"/>
<path d="M72.834 54.5767L88.5845 69.8446L95.4535 71.0739C88.6991 87.6204 94.5375 94.8495 89.4593 96.9655C89.4593 96.9655 84.4332 94.2737 82.6083 93.0262C80.7835 91.7788 77.6956 90.4035 75.1671 88.397L59.2936 76.2028C59.2936 76.2028 48.6425 70.1434 50.7205 65.8698C51.4681 64.3233 51.3551 61.2224 49.9845 60.1545C49.7749 59.988 46.5883 57.2114 44.2051 55.6045L52.0808 50.5861C52.0808 50.5861 56.0892 53.5132 57.0993 53.9924C57.1788 54.0214 57.2497 54.0645 57.3292 54.0935C58.4701 54.6134 59.824 53.922 60.7717 53.0998C66.567 48.0194 72.834 54.5767 72.834 54.5767Z" fill="#FFB27D"/>
<path d="M70.9305 57.8294C71.1684 58.0131 71.2059 58.3664 71.0221 58.6043C70.8384 58.8422 70.4851 58.8798 70.2473 58.696C70.0094 58.5123 69.9719 58.159 70.1557 57.9211C70.3536 57.6918 70.6926 57.6456 70.9305 57.8294Z" fill="#ED975D"/>
<path d="M62.5599 68.3189C62.7978 68.5026 62.8353 68.8559 62.6515 69.0938C62.4677 69.3317 62.1145 69.3693 61.8766 69.1855C61.6388 69.0018 61.6013 68.6485 61.785 68.4106C61.9774 68.1585 62.3307 68.121 62.5599 68.3189Z" fill="#ED975D"/>
<path d="M95.4619 71.0598C95.4619 71.0598 119.148 79.6158 125.072 87.6939C130.995 95.7719 134.766 109.555 134.766 109.555L129.65 110.968C129.65 110.968 119.678 95.2735 115.132 93.1656C110.586 91.0577 89.6144 85.2238 89.6144 85.2238L95.4619 71.0598Z" fill="#FFB27D"/>
<path d="M134.78 109.564C134.78 109.564 137.49 112.963 141.058 114.572C144.625 116.181 146.669 117.388 145.482 118.666C144.295 119.945 138.95 119.022 136.398 118.809C133.837 118.61 129.107 119.772 129.678 110.985L134.78 109.564Z" fill="#FFB27D"/>
<path d="M91.714 80.6913C91.714 80.6913 113.669 94.3544 116.431 103.986C118.081 109.733 108.86 127.362 108.86 127.362L104.093 127.277C104.093 127.277 106.473 107.639 105.464 106.869C101.465 103.831 82.6252 92.9979 82.6252 92.9979L91.714 80.6913Z" fill="#FFB27D"/>
<path d="M108.895 127.209C108.895 127.209 107.581 131.345 108.227 135.198C108.873 139.051 109.025 141.418 107.305 141.147C105.584 140.877 103.377 135.918 102.12 133.675C100.862 131.432 97.2549 128.166 104.873 123.729L108.895 127.209Z" fill="#FFB27D"/>
<path d="M60.7629 53.1141C60.7629 53.1141 63.2819 50.1586 63.6137 41.8284C63.8809 35.072 54.4422 19.2363 54.4422 19.2363L57.0527 17.5027C57.0527 17.5027 70.5003 32.3398 71.8344 37.5837C73.1686 42.8277 72.8425 54.5626 72.8425 54.5626L60.7629 53.1141Z" fill="#FFB27D"/>
<path d="M54.442 19.2363C54.442 19.2363 52.034 17.9252 51.8776 17.4801C51.744 17.0294 53.5117 17.4453 53.3596 17.2165C53.2074 16.9878 51.2246 14.2448 52.0181 13.4842C53.1213 12.4068 54.3001 13.6301 55.3219 14.5051C56.3436 15.38 57.0438 17.5168 57.0438 17.5168L54.442 19.2363Z" fill="#FFB27D"/>
<path d="M50.9906 65.4904C50.9906 65.4904 49.5206 69.0847 42.2714 73.2019C36.3908 76.5396 17.9897 75.4197 17.9897 75.4197L17.6472 78.5346C17.6472 78.5346 37.0007 83.6747 42.2721 82.4538C47.5436 81.233 58.9405 75.7936 58.9405 75.7936L50.9906 65.4904Z" fill="#FFB27D"/>
<path d="M17.9896 75.4196C17.9896 75.4196 15.7198 73.8817 15.2525 73.947C14.7908 74.0351 15.9714 75.4149 15.6984 75.3847C15.4253 75.3544 12.0783 74.8514 11.7667 75.9055C11.3156 77.38 12.9434 77.866 14.1897 78.3724C15.4359 78.8788 17.6558 78.5204 17.6558 78.5204L17.9896 75.4196Z" fill="#FFB27D"/>
<path d="M47.5654 57.9041C47.5654 57.9041 50.4328 58.6203 55.1176 52.7469L53.9134 51.9163L47.5654 57.9041Z" fill="#ED975D"/>
<path d="M55.2345 49.3001C55.2345 49.3001 51.4422 61.334 43.0637 57.6694C34.6851 54.0048 31.5085 46.7447 33.0068 43.6145C36.0317 37.3716 39.136 37.5713 42.2093 38.1408C45.2912 38.6962 57.0504 43.7978 55.2345 49.3001Z" fill="#FFB27D"/>
<path d="M48.8269 49.7705C48.8269 49.7705 50.5985 49.6056 51.4043 47.4531C51.4043 47.4531 52.3278 45.139 50.5077 44.4581C50.5219 44.4667 48.8339 47.0149 48.8269 49.7705Z" fill="white"/>
<path d="M47.723 58.1552C47.723 58.1552 45.1972 59.1435 42.1603 56.5359C42.1603 56.5359 39.8924 56.8456 39.4737 55.1718C39.0661 53.5436 42.0015 53.8931 41.8025 53.4221C41.6035 52.9511 35.5076 49.3356 36.8475 48.1886C44.4426 41.7165 40.6622 33.6611 40.6622 33.6611C40.6622 33.6611 27.0588 37.8733 26.7478 48.6262C26.4086 61.0529 43.3626 65.3146 47.723 58.1552Z" fill="#0E2981"/>
<path d="M29.1629 56.1802C29.1629 56.1802 27.445 55.9697 26.615 54.9394C26.615 54.9394 28.0936 55.6067 29.0091 55.348C29.9301 55.112 29.1629 56.1802 29.1629 56.1802Z" fill="#0E2981"/>
<path d="M28.2165 55.4681C28.2165 55.4681 27.4567 56.7157 28.212 57.8366C28.212 57.8366 27.9955 56.5969 29.1126 55.9751L28.2165 55.4681Z" fill="#0E2981"/>
<path d="M89.4761 96.9372L97.2608 85.5273C97.2608 85.5273 99.0126 81.9491 100.321 78.6839C101.357 76.0888 102.102 73.6853 101.469 73.4164C100.021 72.8262 86.3471 67.6465 86.3471 67.6465C86.3471 67.6465 81.8351 78.7562 72.5247 86.3216C72.5019 86.3271 77.692 92.5785 89.4761 96.9372Z" fill="#F77D48"/>
<path d="M42.9936 84.3317L53.5111 80.1448C54.6825 79.4977 55.1194 78.0146 54.4867 76.8518L52.535 73.292L49.8409 68.3665C49.194 67.1951 47.711 66.7584 46.5396 67.4054L37.0669 73.7058C35.8955 74.3529 35.229 74.841 35.8758 76.0124L38.2915 80.4378L39.7454 83.092C40.3726 84.2319 41.808 84.9701 42.9936 84.3317Z" fill="#F77D48"/>
<path d="M63.0361 52.0301L67.7863 52.1438L67.8004 52.1524L72.7213 52.2729C74.059 52.3102 75.1763 51.2414 75.2137 49.9037L74.1076 38.6376C74.145 37.2999 72.8305 36.3632 71.4929 36.326L70.4369 36.3048L63.4128 36.1278C62.0752 36.0906 61.9473 36.9067 61.9099 38.2445L60.6587 49.5521C60.63 50.8756 61.6985 51.9928 63.0361 52.0301Z" fill="#F77D48"/>
<path d="M42.9937 84.3316L53.5112 80.1447C54.6827 79.4976 55.1195 78.0145 54.4868 76.8517L52.5351 73.2919C52.5351 73.2919 52.9459 76.574 50.5123 78.2405C48.0788 79.9069 41.8329 82.5362 40.435 82.1513C39.1024 81.7867 38.3791 80.5493 38.3003 80.4236L39.7542 83.0777C40.3727 84.2318 41.8081 84.97 42.9937 84.3316Z" fill="#E26337"/>
<path d="M67.7861 52.1439L72.707 52.2644C74.0446 52.3017 75.1619 51.2329 75.1993 49.8952L74.0933 38.6291C74.1307 37.2914 72.8162 36.3547 71.4786 36.3175L70.4226 36.2963C70.4226 36.2963 71.3847 36.7268 71.6308 38.2372C71.8911 39.7562 72.1946 48.8621 70.2166 50.5144C68.4531 52.0059 67.8915 52.1304 67.7861 52.1439Z" fill="#E26337"/>
<path d="M97.261 85.5274C97.261 85.5274 91.6382 80.9756 91.0757 78.2618C91.0757 78.2618 94.611 81.6783 98.5317 82.8029L97.261 85.5274Z" fill="#E26337"/>
</svg>
